<?xml version="1.0" encoding="UTF-8"?>
<svg xmlns="http://www.w3.org/2000/svg" version="1.1" viewBox="0 0 140 200">
  <defs>
    <style>
      .cls-1 {
        fill: none;
        stroke: #8d0000;
        stroke-linecap: round;
        stroke-linejoin: round;
        stroke-width: 3px;
      }
    </style>
  </defs>
  <!-- Generator: Adobe Illustrator 28.7.1, SVG Export Plug-In . SVG Version: 1.2.0 Build 142)  -->
  <g>
    <g id="Calque_1">
      <path class="cls-1" d="M48.5,87.6c-.3-3.5-1-6.3-1.5-7.6-1.6-2.3-5.7-6.9-9.4-7.2-4.7-.4-6.3,3.2-7.9,7.2-1.3,3.2-1.6,13.4-1.6,18-.8,6.1-2.8,19.5-4.3,23.7-1.6,4.2-.7,11.1,0,14,2.4,7.2,7.9,23.3,11.4,29.7,4.3,8,7.9,7.2,11.8,10.8,3.1,2.9,4,16.3,3.9,19.8M48.5,87.6c.1,1.6.2,3.4,0,5.2-.3,5.8-1.2,8-1.6,8.4-.1,4.7-.7,14.7-2,17.2-1.3,2.6-.5,1.6,0,.8.7,1.1,1.6,3.4,0,4.4M66.2,14.7c-.2-1.2-.5-2-.7-2.4-.8-1.7-3.6-4.7-8.6-2.4-5,2.2-7.6,19.1-8.3,27.3-.5,3.7-1.4,11.8-.8,14,.6,2.2.3,7.9,0,10.4-.1,3.9-.3,12.2,0,14.4.3,2.2.6,8.7.7,11.6M66.2,14.7c0,.5.1,1,.1,1.6,0,2.4-1.6,27.7-1.2,38.9l2,24.9M82.3,18.7c.3-7.2-.2-10.7-.6-11.6-.7-1.2-2.8-3.7-6.3-4-4.3-.4-6.7,4-7.5,5.2-.6,1-1.4,4.7-1.7,6.4M82.3,18.7c-.1,2.3-.3,4.9-.6,8,.5,4.9,1.5,17,1.2,25.7.5,5.3,1.6,17.7,1.6,24.5M98.2,47.5c-.3-3.5-.6-6.9-.8-9.2-.9-13.5-3.3-20.3-4.3-22-.7-1.1-2.9-3.1-6.7-2.8-3.8.3-4.3,3.6-4.1,5.2M98.2,47.5c.4,5.1.8,10.6.8,13.2.3,5.6.6,18.2,0,23.7M102.5,196c-.3-3.9-.6-17.9,0-19.8.6-1.9,3.5-5.6,3.5-5.6,0,0,10-32.9,10.6-44.1.6-11.2.3-21,0-24.5-.1-.9-.5-6.1-.8-19.2-.3-13.1-4.6-29-6.7-35.3-.7-1.2-2.8-3.6-5.9-3.6s-4.7,2.4-5.1,3.6"/>
    </g>
  </g>
</svg>