<?xml version="1.0" encoding="UTF-8"?>
<svg xmlns="http://www.w3.org/2000/svg" version="1.1" viewBox="0 0 196 200">
  <defs>
    <style>
      .cls-1 {
        fill: none;
        stroke: #8d0000;
        stroke-linecap: round;
        stroke-linejoin: round;
        stroke-width: 3px;
      }
    </style>
  </defs>
  <!-- Generator: Adobe Illustrator 28.7.1, SVG Export Plug-In . SVG Version: 1.2.0 Build 142)  -->
  <g>
    <g id="Calque_1">
      <path class="cls-1" d="M134.9,193.9c-1.4-7.4-.8-12.4-.4-13.9,2-3.4,4.2-15.2,5.5-19.9,2.5-5.5,4.1-12.3,4.7-16.9.6-4.9,2.2-16.1,4.2-21.1,2-5.1,3.4-7.7,3.8-8.4,6.1-4.4,19.8-17.6,25.9-23.7,4.2-4.6,6.4-7.2,11-13.5,5.5-7.5,4.7-12.4,3-14.4-.6-.7-2.4-2-5.1-1.7-2.7.3-13,10.8-17.8,16.1-16,14.9-25.1,17.7-27.6,17.3-2.1-.8-6.2-3-5.5-5.1.8-2.5,6.4-20.7,8.5-24.1,1.7-2.7,6.1-24.5,8.1-35.1,1.1-2.8,2.1-9-3-11-5.1-2-8.6,2-9.8,4.2-1,2.5-4.5,12.3-10.6,30.8-6.1,18.6-9.9,23.2-11,23.2-4.1.3-5.1-3-5.1-4.6.4-9.3-1.7-20.3-1.3-22.4.3-1.7-.1-17.9-.4-25.8.3-1.4.9-5.7,1.3-11.8.3-6.1-5-7.3-7.6-7.2-.7-.1-2.9.4-5.9,3.8-3.8,4.2-5.1,34.6-5.5,35.9-.3,1-.1,6.3,0,8.9,0,11,1.3,21.5,1.3,22.8s-.6,1.3-.8,1.3c-5.4,1-8.5-3-9.3-5.1-4.7-13.5-8.9-18.2-9.3-20.3-.3-1.7-5.5-14.5-8.1-20.7-.1-1-.9-4.6-3-11.4-2-6.8-5.9-8.2-7.6-8-1.3-.1-4.4.6-6.8,4.6-2.4,4.1,1.6,22.3,3.8,30.8,2.3,7,7.9,23.7,12.3,33.8,4.4,10.1,4.7,21.1,4.2,25.4-5.1,17.6-14.6,23.1-18.7,23.7-1.3-.1-4-.8-4.7-2.1-.9-1.7-13.2-15.2-14-16.5-.7-1-5.4-6.1-7.6-8.5-3-3-10.8-8-18.3-4.6-7.5,3.4-5.7,9-3.8,11.4,2.4,3.9,8.4,12.6,13.2,15.6s9.1,9.4,10.6,12.3c5.5,11,11.5,16.9,14,17.7,2.6.8,20.8,19.4,23.4,23.2,2.6,3.8,12.3,4.6,12.3,7.6v9.3"/>
    </g>
  </g>
</svg>