<svg width="605" height="810" viewBox="0 0 605 810" fill="none" xmlns="http://www.w3.org/2000/svg">
<path d="M260.099 471.258V468.562C262.638 468.315 264.409 467.905 265.412 467.332C266.414 466.746 267.163 465.372 267.658 463.211H270.431V491.062H266.681V471.258H260.099Z" fill="#8D0000"/>
<path d="M173.4 444.789C174.884 444.789 176.323 445.141 177.716 445.844C179.109 446.534 180.171 447.432 180.9 448.539C181.603 449.594 182.072 450.824 182.306 452.23C182.514 453.194 182.619 454.73 182.619 456.84H167.287C167.352 458.962 167.853 460.668 168.79 461.957C169.728 463.233 171.18 463.871 173.146 463.871C174.982 463.871 176.447 463.266 177.54 462.055C178.165 461.352 178.608 460.538 178.869 459.613H182.326C182.234 460.382 181.929 461.241 181.408 462.191C180.9 463.129 180.327 463.897 179.689 464.496C178.621 465.538 177.3 466.241 175.724 466.605C174.878 466.814 173.921 466.918 172.853 466.918C170.249 466.918 168.042 465.974 166.232 464.086C164.422 462.185 163.517 459.529 163.517 456.117C163.517 452.758 164.429 450.03 166.251 447.934C168.074 445.837 170.457 444.789 173.4 444.789ZM179.005 454.047C178.862 452.523 178.53 451.306 178.009 450.395C177.046 448.702 175.438 447.855 173.185 447.855C171.57 447.855 170.216 448.441 169.123 449.613C168.029 450.772 167.449 452.25 167.384 454.047H179.005Z" fill="#8D0000"/>
<path d="M185.136 426.472C185.136 428.711 185.611 430.586 186.562 432.097C187.512 433.607 189.036 434.362 191.132 434.362C192.76 434.362 194.095 433.666 195.136 432.272C196.191 430.866 196.718 428.854 196.718 426.237C196.718 423.594 196.178 421.641 195.097 420.378C194.016 419.102 192.682 418.464 191.093 418.464C189.322 418.464 187.884 419.141 186.777 420.495C185.683 421.849 185.136 423.841 185.136 426.472ZM190.429 415.397C192.031 415.397 193.372 415.736 194.453 416.413C195.078 416.804 195.787 417.487 196.581 418.464V407.897H199.96V436.687H196.796V433.776C195.976 435.065 195.006 435.996 193.886 436.569C192.766 437.142 191.484 437.429 190.039 437.429C187.708 437.429 185.69 436.452 183.984 434.499C182.278 432.533 181.425 429.922 181.425 426.667C181.425 423.62 182.2 420.983 183.749 418.757C185.312 416.517 187.539 415.397 190.429 415.397Z" fill="#8D0000"/>
<path d="M210.896 404.105C213.253 404.105 215.167 404.678 216.638 405.824C218.123 406.97 219.014 408.943 219.314 411.742H215.896C215.688 410.453 215.212 409.385 214.47 408.539C213.728 407.68 212.537 407.25 210.896 407.25C208.656 407.25 207.055 408.344 206.091 410.531C205.466 411.951 205.154 413.702 205.154 415.785C205.154 417.882 205.596 419.646 206.482 421.078C207.367 422.51 208.761 423.227 210.662 423.227C212.12 423.227 213.272 422.784 214.119 421.898C214.978 421 215.57 419.776 215.896 418.227H219.314C218.923 421 217.947 423.031 216.384 424.32C214.822 425.596 212.823 426.234 210.388 426.234C207.654 426.234 205.473 425.238 203.845 423.246C202.218 421.241 201.404 418.741 201.404 415.746C201.404 412.074 202.296 409.216 204.08 407.172C205.863 405.128 208.136 404.105 210.896 404.105Z" fill="#8D0000"/>
<path d="M218.49 410.661H221.908V421.071C222.676 420.069 223.594 419.307 224.662 418.786C225.729 418.252 226.888 417.985 228.138 417.985C230.742 417.985 232.852 418.884 234.466 420.681C236.094 422.465 236.908 425.101 236.908 428.591C236.908 431.898 236.107 434.646 234.505 436.833C232.904 439.021 230.684 440.114 227.845 440.114C226.257 440.114 224.915 439.73 223.822 438.962C223.171 438.506 222.474 437.777 221.732 436.774V439.45H218.49V410.661ZM227.63 437.009C229.531 437.009 230.951 436.254 231.888 434.743C232.839 433.233 233.314 431.241 233.314 428.767C233.314 426.566 232.839 424.743 231.888 423.298C230.951 421.853 229.564 421.13 227.728 421.13C226.126 421.13 224.72 421.722 223.509 422.907C222.311 424.092 221.712 426.045 221.712 428.767C221.712 430.733 221.96 432.328 222.455 433.552C223.379 435.856 225.104 437.009 227.63 437.009Z" fill="#8D0000"/>
<path d="M242.007 594.113C242.007 595.129 242.378 595.93 243.121 596.516C243.863 597.102 244.742 597.395 245.757 597.395C246.994 597.395 248.192 597.108 249.351 596.535C251.304 595.585 252.281 594.029 252.281 591.867V589.035C251.851 589.309 251.298 589.536 250.621 589.719C249.943 589.901 249.279 590.031 248.628 590.109L246.499 590.383C245.223 590.552 244.266 590.819 243.628 591.184C242.548 591.796 242.007 592.772 242.007 594.113ZM250.523 587.004C251.33 586.9 251.871 586.561 252.144 585.988C252.3 585.676 252.378 585.227 252.378 584.641C252.378 583.443 251.949 582.577 251.089 582.043C250.243 581.496 249.026 581.223 247.437 581.223C245.601 581.223 244.299 581.717 243.531 582.707C243.101 583.254 242.821 584.068 242.691 585.148H239.41C239.475 582.57 240.308 580.78 241.91 579.777C243.524 578.762 245.393 578.254 247.515 578.254C249.976 578.254 251.975 578.723 253.511 579.66C255.035 580.598 255.796 582.056 255.796 584.035V596.086C255.796 596.451 255.868 596.743 256.011 596.965C256.167 597.186 256.486 597.297 256.968 597.297C257.124 597.297 257.3 597.29 257.496 597.277C257.691 597.251 257.899 597.219 258.121 597.18V599.777C257.574 599.934 257.157 600.031 256.871 600.07C256.584 600.109 256.193 600.129 255.699 600.129C254.488 600.129 253.609 599.699 253.062 598.84C252.776 598.384 252.574 597.74 252.457 596.906C251.74 597.844 250.712 598.658 249.371 599.348C248.029 600.038 246.552 600.383 244.937 600.383C242.997 600.383 241.408 599.797 240.171 598.625C238.947 597.44 238.335 595.962 238.335 594.191C238.335 592.251 238.941 590.747 240.152 589.68C241.363 588.612 242.951 587.954 244.917 587.707L250.523 587.004Z" fill="#8D0000"/>
<path d="M207.821 753.631C207.769 752.173 207.515 751.105 207.059 750.428C206.239 749.23 204.657 748.631 202.313 748.631C202.092 748.631 201.864 748.637 201.629 748.65C201.395 748.663 201.128 748.683 200.829 748.709V751.912C201.193 751.886 201.46 751.873 201.629 751.873C201.786 751.86 201.935 751.854 202.079 751.854C203.146 751.854 203.784 752.133 203.993 752.693C204.201 753.24 204.305 754.646 204.305 756.912H200.829V759.686H204.344V777.732H207.821V759.686H210.731V756.912H207.821V753.631Z" fill="#8D0000"/>
<path d="M222.085 186.025C222.216 183.617 222.71 181.52 223.57 179.736C224.442 177.952 226.135 176.331 228.648 174.873L232.398 172.705C234.078 171.729 235.256 170.895 235.933 170.205C237.001 169.124 237.535 167.887 237.535 166.494C237.535 164.867 237.046 163.577 236.07 162.627C235.093 161.663 233.791 161.182 232.164 161.182C229.755 161.182 228.088 162.093 227.164 163.916C226.669 164.893 226.395 166.247 226.343 167.979H222.769C222.808 165.544 223.257 163.558 224.117 162.021C225.64 159.313 228.329 157.959 232.183 157.959C235.386 157.959 237.723 158.825 239.195 160.557C240.679 162.288 241.421 164.215 241.421 166.338C241.421 168.577 240.634 170.492 239.058 172.08C238.147 173.005 236.512 174.124 234.156 175.439L231.48 176.924C230.204 177.627 229.201 178.298 228.472 178.936C227.17 180.068 226.35 181.325 226.011 182.705H241.285V186.025H222.085Z" fill="#8D0000"/>
<path d="M162.396 294.09C162.63 296.095 163.561 297.482 165.189 298.25C166.022 298.641 166.986 298.836 168.08 298.836C170.163 298.836 171.706 298.172 172.708 296.844C173.711 295.516 174.212 294.044 174.212 292.43C174.212 290.477 173.613 288.966 172.415 287.898C171.231 286.831 169.805 286.297 168.138 286.297C166.927 286.297 165.886 286.531 165.013 287C164.154 287.469 163.418 288.12 162.806 288.953L159.759 288.777L161.888 273.719H176.419V277.117H164.525L163.333 284.891C163.984 284.396 164.603 284.025 165.189 283.777C166.231 283.348 167.435 283.133 168.802 283.133C171.367 283.133 173.542 283.96 175.326 285.613C177.109 287.267 178.001 289.363 178.001 291.902C178.001 294.546 177.181 296.876 175.54 298.895C173.913 300.913 171.309 301.922 167.728 301.922C165.449 301.922 163.431 301.284 161.673 300.008C159.929 298.719 158.952 296.746 158.744 294.09H162.396Z" fill="#8D0000"/>
<path d="M186.414 186.259V173.583L177.449 186.259H186.414ZM186.472 196.161V189.325H174.207V185.888L187.019 168.114H189.988V186.259H194.109V189.325H189.988V196.161H186.472Z" fill="#8D0000"/>
<path d="M205.519 161.904C202.212 161.904 199.809 160.999 198.312 159.189C196.828 157.367 196.085 155.153 196.085 152.549H199.757C199.914 154.359 200.252 155.674 200.773 156.494C201.684 157.965 203.332 158.701 205.714 158.701C207.563 158.701 209.048 158.206 210.167 157.217C211.287 156.227 211.847 154.951 211.847 153.389C211.847 151.462 211.255 150.114 210.07 149.346C208.898 148.577 207.264 148.193 205.167 148.193C204.933 148.193 204.692 148.2 204.445 148.213C204.21 148.213 203.97 148.219 203.722 148.232V145.127C204.087 145.166 204.393 145.192 204.64 145.205C204.887 145.218 205.154 145.225 205.441 145.225C206.756 145.225 207.837 145.016 208.683 144.6C210.167 143.87 210.91 142.568 210.91 140.693C210.91 139.3 210.415 138.226 209.425 137.471C208.436 136.715 207.283 136.338 205.968 136.338C203.624 136.338 202.003 137.119 201.105 138.682C200.61 139.541 200.33 140.765 200.265 142.354H196.789C196.789 140.27 197.205 138.499 198.039 137.041C199.471 134.437 201.99 133.135 205.597 133.135C208.449 133.135 210.656 133.773 212.218 135.049C213.781 136.312 214.562 138.148 214.562 140.557C214.562 142.275 214.1 143.669 213.175 144.736C212.602 145.4 211.86 145.921 210.949 146.299C212.42 146.702 213.566 147.484 214.386 148.643C215.22 149.788 215.636 151.195 215.636 152.861C215.636 155.531 214.757 157.705 212.999 159.385C211.242 161.064 208.748 161.904 205.519 161.904Z" fill="#8D0000"/>
<path d="M234.99 52.9982C234.377 53.5561 234.333 54.5048 234.891 55.1172C235.449 55.7296 236.398 55.7738 237.01 55.216L234.99 52.9982ZM392.632 451.257C392.972 452.013 393.861 452.349 394.616 452.009L406.925 446.466C407.681 446.126 408.017 445.238 407.677 444.483C407.337 443.727 406.449 443.391 405.694 443.731L394.752 448.658L389.825 437.716C389.485 436.961 388.597 436.624 387.841 436.964C387.086 437.304 386.749 438.192 387.089 438.948L392.632 451.257ZM240.769 52.0066C241.416 51.4892 241.521 50.5452 241.004 49.8983C240.486 49.2513 239.542 49.1464 238.895 49.6638L240.769 52.0066ZM247.286 43.7789C246.58 44.2115 246.358 45.1349 246.79 45.8414C247.223 46.5479 248.146 46.77 248.853 46.3374L247.286 43.7789ZM257.578 41.6963C258.331 41.3515 258.662 40.4613 258.317 39.7081C257.973 38.9548 257.082 38.6237 256.329 38.9685L257.578 41.6963ZM265.866 35.2517C265.079 35.5083 264.648 36.3548 264.905 37.1425C265.161 37.9302 266.008 38.3607 266.795 38.1042L265.866 35.2517ZM276.365 35.557C277.176 35.3872 277.696 34.5923 277.526 33.7815C277.356 32.9706 276.561 32.4509 275.751 32.6206L276.365 35.557ZM285.851 31.0493C285.027 31.1346 284.428 31.8718 284.513 32.6958C284.599 33.5199 285.336 34.1187 286.16 34.0334L285.851 31.0493ZM296.067 33.5012C296.895 33.4972 297.563 32.8223 297.559 31.9939C297.555 31.1655 296.88 30.4972 296.052 30.5013L296.067 33.5012ZM306.255 30.9343C305.43 30.8606 304.701 31.4698 304.627 32.2949C304.553 33.1201 305.163 33.8487 305.988 33.9224L306.255 30.9343ZM315.837 35.2555C316.652 35.4033 317.433 34.8623 317.581 34.0472C317.729 33.2321 317.188 32.4515 316.373 32.3037L315.837 35.2555ZM326.331 34.5635C325.532 34.3454 324.707 34.8165 324.489 35.6157C324.271 36.4149 324.742 37.2396 325.541 37.4577L326.331 34.5635ZM335.021 40.4805C335.799 40.765 336.66 40.3648 336.944 39.5867C337.229 38.8087 336.829 37.9473 336.051 37.6629L335.021 40.4805ZM345.453 41.5418C344.701 41.1953 343.81 41.5243 343.464 42.2768C343.117 43.0292 343.446 43.9202 344.198 44.2667L345.453 41.5418ZM353.052 48.7767C353.775 49.1812 354.689 48.9232 355.094 48.2002C355.498 47.4773 355.24 46.5633 354.517 46.1587L353.052 48.7767ZM363.203 51.4659C362.513 51.0075 361.582 51.1953 361.123 51.8854C360.665 52.5754 360.853 53.5064 361.543 53.9648L363.203 51.4659ZM369.64 59.7878C370.294 60.2958 371.236 60.1772 371.744 59.5228C372.252 58.8684 372.134 57.9261 371.479 57.4181L369.64 59.7878ZM379.314 63.9636C378.698 63.4103 377.749 63.4615 377.196 64.0781C376.643 64.6946 376.694 65.643 377.311 66.1963L379.314 63.9636ZM384.463 73.0712C385.04 73.6652 385.99 73.6785 386.584 73.101C387.178 72.5235 387.191 71.5739 386.613 70.9799L384.463 73.0712ZM393.446 78.4879C392.909 77.8575 391.962 77.782 391.332 78.3194C390.701 78.8567 390.626 79.8035 391.163 80.434L393.446 78.4879ZM397.413 88.2572C397.91 88.9203 398.85 89.0553 399.513 88.5587C400.176 88.0621 400.311 87.122 399.815 86.4589L397.413 88.2572ZM405.648 94.7577C405.192 94.0661 404.261 93.8751 403.57 94.3312C402.878 94.7872 402.687 95.7176 403.143 96.4092L405.648 94.7577ZM408.378 104.866C408.794 105.583 409.712 105.826 410.429 105.41C411.145 104.994 411.389 104.076 410.973 103.36L408.378 104.866ZM415.856 112.327C415.479 111.589 414.576 111.296 413.838 111.672C413.1 112.049 412.807 112.952 413.183 113.69L415.856 112.327ZM417.47 122.662C417.808 123.418 418.695 123.757 419.452 123.419C420.208 123.081 420.547 122.193 420.209 121.437L417.47 122.662ZM424.117 130.786C423.816 130.014 422.946 129.632 422.174 129.933C421.402 130.234 421.021 131.104 421.322 131.876L424.117 130.786ZM424.755 141.326C425.02 142.111 425.871 142.532 426.656 142.268C427.441 142.003 427.862 141.151 427.597 140.367L424.755 141.326ZM430.605 149.961C430.374 149.165 429.542 148.707 428.746 148.938C427.951 149.169 427.493 150.001 427.724 150.797L430.605 149.961ZM430.343 160.587C430.541 161.392 431.353 161.884 432.158 161.686C432.962 161.489 433.454 160.676 433.257 159.872L430.343 160.587ZM435.452 169.616C435.285 168.804 434.492 168.282 433.681 168.448C432.869 168.615 432.346 169.408 432.513 170.22L435.452 169.616ZM434.368 180.189C434.504 181.006 435.277 181.558 436.094 181.421C436.911 181.285 437.463 180.512 437.327 179.695L434.368 180.189ZM438.802 189.569C438.694 188.748 437.94 188.17 437.119 188.279C436.297 188.388 435.72 189.141 435.828 189.963L438.802 189.569ZM436.993 200.068C437.074 200.893 437.808 201.495 438.633 201.414C439.457 201.333 440.06 200.598 439.978 199.774L436.993 200.068ZM440.803 209.693C440.747 208.866 440.031 208.242 439.205 208.298C438.378 208.354 437.754 209.07 437.81 209.896L440.803 209.693ZM438.348 220.031C438.38 220.859 439.076 221.504 439.904 221.472C440.732 221.44 441.377 220.743 441.346 219.916L438.348 220.031ZM441.591 229.903C441.582 229.074 440.903 228.41 440.075 228.419C439.246 228.428 438.582 229.107 438.591 229.936L441.591 229.903ZM438.568 240.015C438.556 240.844 439.217 241.525 440.045 241.538C440.874 241.551 441.555 240.89 441.568 240.061L438.568 240.015ZM441.287 250.155C441.32 249.327 440.676 248.629 439.848 248.596C439.021 248.563 438.323 249.207 438.289 250.035L441.287 250.155ZM437.771 260.001C437.718 260.828 438.345 261.541 439.172 261.594C439.999 261.646 440.712 261.019 440.764 260.192L437.771 260.001ZM439.993 270.436C440.065 269.611 439.454 268.884 438.628 268.812C437.803 268.741 437.076 269.352 437.004 270.177L439.993 270.436ZM436.05 279.987C435.961 280.81 436.557 281.55 437.38 281.639C438.204 281.728 438.944 281.132 439.033 280.308L436.05 279.987ZM437.84 290.397C437.945 289.576 437.365 288.824 436.543 288.718C435.721 288.613 434.97 289.193 434.864 290.015L437.84 290.397ZM433.483 299.989C433.361 300.809 433.927 301.571 434.746 301.693C435.566 301.815 436.329 301.249 436.45 300.429L433.483 299.989ZM434.893 310.297C435.03 309.48 434.478 308.707 433.661 308.571C432.844 308.434 432.071 308.986 431.934 309.803L434.893 310.297ZM430.169 319.812C430.018 320.627 430.556 321.41 431.37 321.561C432.185 321.712 432.968 321.174 433.119 320.36L430.169 319.812ZM431.204 330.217C431.368 329.405 430.844 328.614 430.032 328.449C429.22 328.284 428.428 328.809 428.264 329.621L431.204 330.217ZM426.202 339.374C426.025 340.183 426.536 340.983 427.346 341.161C428.155 341.338 428.955 340.827 429.133 340.017L426.202 339.374ZM426.859 349.991C427.049 349.185 426.55 348.377 425.744 348.186C424.938 347.996 424.13 348.495 423.939 349.301L426.859 349.991ZM421.572 359.003C421.37 359.806 421.857 360.621 422.66 360.824C423.464 361.026 424.279 360.539 424.481 359.735L421.572 359.003ZM421.97 369.418C422.183 368.618 421.708 367.796 420.907 367.582C420.107 367.369 419.285 367.845 419.071 368.645L421.97 369.418ZM416.384 378.443C416.159 379.24 416.623 380.069 417.421 380.293C418.218 380.518 419.047 380.054 419.271 379.256L416.384 378.443ZM416.467 388.963C416.702 388.169 416.249 387.334 415.455 387.099C414.66 386.864 413.826 387.317 413.591 388.112L416.467 388.963ZM410.716 397.605C410.471 398.396 410.914 399.237 411.705 399.482C412.497 399.727 413.337 399.284 413.582 398.492L410.716 397.605ZM410.524 408.16C410.778 407.371 410.346 406.526 409.557 406.271C408.769 406.017 407.923 406.449 407.669 407.237L410.524 408.16ZM404.465 416.955C404.201 417.74 404.624 418.591 405.409 418.855C406.194 419.119 407.045 418.696 407.309 417.911L404.465 416.955ZM404.107 427.26C404.38 426.477 403.967 425.622 403.184 425.349C402.402 425.077 401.547 425.49 401.274 426.272L404.107 427.26ZM397.924 435.713C397.643 436.493 398.047 437.352 398.826 437.634C399.605 437.915 400.465 437.511 400.746 436.732L397.924 435.713ZM397.224 446.328C397.514 445.552 397.119 444.688 396.343 444.398C395.567 444.109 394.703 444.503 394.414 445.28L397.224 446.328ZM237.01 55.216C238.229 54.1053 239.483 53.0353 240.769 52.0066L238.895 49.6638C237.56 50.7323 236.257 51.8439 234.99 52.9982L237.01 55.216ZM248.853 46.3374C251.652 44.6233 254.565 43.0751 257.578 41.6963L256.329 38.9685C253.21 40.3964 250.19 42.0009 247.286 43.7789L248.853 46.3374ZM266.795 38.1042C269.91 37.0896 273.104 36.2395 276.365 35.557L275.751 32.6206C272.385 33.325 269.086 34.2029 265.866 35.2517L266.795 38.1042ZM286.16 34.0334C289.418 33.696 292.724 33.5177 296.067 33.5012L296.052 30.5013C292.612 30.5182 289.208 30.7017 285.851 31.0493L286.16 34.0334ZM305.988 33.9224C309.253 34.2141 312.54 34.6576 315.837 35.2555L316.373 32.3037C312.987 31.6898 309.611 31.2341 306.255 30.9343L305.988 33.9224ZM325.541 37.4577C328.705 38.321 331.868 39.3279 335.021 40.4805L336.051 37.6629C332.819 36.4816 329.576 35.4491 326.331 34.5635L325.541 37.4577ZM344.198 44.2667C347.17 45.6355 350.125 47.1382 353.052 48.7767L354.517 46.1587C351.521 44.4821 348.497 42.9437 345.453 41.5418L344.198 44.2667ZM361.543 53.9648C364.276 55.7803 366.977 57.7208 369.64 59.7878L371.479 57.4181C368.759 55.306 365.997 53.3224 363.203 51.4659L361.543 53.9648ZM377.311 66.1963C379.737 68.374 382.123 70.6652 384.463 73.0712L386.613 70.9799C384.227 68.5254 381.792 66.187 379.314 63.9636L377.311 66.1963ZM391.163 80.434C393.296 82.9362 395.381 85.5435 397.413 88.2572L399.815 86.4589C397.745 83.6951 395.62 81.0385 393.446 78.4879L391.163 80.434ZM403.143 96.4092C404.94 99.1342 406.687 101.953 408.378 104.866L410.973 103.36C409.253 100.398 407.476 97.5306 405.648 94.7577L403.143 96.4092ZM413.183 113.69C414.665 116.596 416.095 119.587 417.47 122.662L420.209 121.437C418.813 118.316 417.361 115.279 415.856 112.327L413.183 113.69ZM421.322 131.876C422.52 134.949 423.665 138.099 424.755 141.326L427.597 140.367C426.493 137.096 425.332 133.902 424.117 130.786L421.322 131.876ZM427.724 150.797C428.65 153.99 429.525 157.253 430.343 160.587L433.257 159.872C432.428 156.498 431.543 153.195 430.605 149.961L427.724 150.797ZM432.513 170.22C433.183 173.48 433.802 176.803 434.368 180.189L437.327 179.695C436.755 176.272 436.129 172.913 435.452 169.616L432.513 170.22ZM435.828 189.963C436.266 193.274 436.655 196.643 436.993 200.068L439.978 199.774C439.637 196.316 439.245 192.914 438.802 189.569L435.828 189.963ZM437.81 209.896C438.036 213.223 438.216 216.601 438.348 220.031L441.346 219.916C441.213 216.457 441.032 213.049 440.803 209.693L437.81 209.896ZM438.591 229.936C438.628 233.25 438.621 236.61 438.568 240.015L441.568 240.061C441.621 236.63 441.628 233.243 441.591 229.903L438.591 229.936ZM438.289 250.035C438.157 253.316 437.985 256.638 437.771 260.001L440.764 260.192C440.98 256.806 441.154 253.46 441.287 250.155L438.289 250.035ZM437.004 270.177C436.724 273.411 436.406 276.68 436.05 279.987L439.033 280.308C439.391 276.981 439.711 273.691 439.993 270.436L437.004 270.177ZM434.864 290.015C434.441 293.305 433.981 296.63 433.483 299.989L436.45 300.429C436.951 297.051 437.414 293.707 437.84 290.397L434.864 290.015ZM431.934 309.803C431.382 313.107 430.794 316.443 430.169 319.812L433.119 320.36C433.747 316.973 434.338 313.619 434.893 310.297L431.934 309.803ZM428.264 329.621C427.61 332.843 426.923 336.094 426.202 339.374L429.133 340.017C429.856 336.722 430.547 333.455 431.204 330.217L428.264 329.621ZM423.939 349.301C423.182 352.508 422.393 355.742 421.572 359.003L424.481 359.735C425.306 356.46 426.098 353.212 426.859 349.991L423.939 349.301ZM419.071 368.645C418.207 371.885 417.311 375.151 416.384 378.443L419.271 379.256C420.202 375.951 421.102 372.672 421.97 369.418L419.071 368.645ZM413.591 388.112C412.661 391.253 411.703 394.417 410.716 397.605L413.582 398.492C414.572 395.293 415.534 392.116 416.467 388.963L413.591 388.112ZM407.669 407.237C406.63 410.454 405.562 413.693 404.465 416.955L407.309 417.911C408.409 414.638 409.481 411.387 410.524 408.16L407.669 407.237ZM401.274 426.272C400.184 429.398 399.068 432.546 397.924 435.713L400.746 436.732C401.893 433.554 403.013 430.396 404.107 427.26L401.274 426.272ZM394.414 445.28C393.815 446.884 393.21 448.494 392.597 450.11L395.403 451.173C396.017 449.553 396.624 447.938 397.224 446.328L394.414 445.28Z" fill="#8D0000"/>
<path d="M296.434 485.39C295.618 485.531 295.07 486.307 295.211 487.123C295.352 487.939 296.128 488.487 296.944 488.346L296.434 485.39ZM244.311 516.145C243.575 516.525 243.287 517.43 243.667 518.166L249.865 530.159C250.245 530.895 251.15 531.184 251.886 530.803C252.622 530.423 252.91 529.518 252.53 528.782L247.021 518.121L257.682 512.613C258.418 512.232 258.706 511.327 258.326 510.591C257.946 509.855 257.041 509.567 256.305 509.947L244.311 516.145ZM249.408 520.403C250.202 520.638 251.037 520.185 251.272 519.391C251.508 518.596 251.055 517.762 250.26 517.526L249.408 520.403ZM259.766 520.117C258.962 519.918 258.148 520.409 257.949 521.213C257.75 522.017 258.24 522.83 259.044 523.029L259.766 520.117ZM268.799 525.177C269.612 525.333 270.398 524.799 270.554 523.986C270.709 523.172 270.176 522.386 269.362 522.231L268.799 525.177ZM279.005 523.758C278.183 523.657 277.434 524.241 277.333 525.063C277.231 525.885 277.815 526.634 278.637 526.736L279.005 523.758ZM288.719 527.568C289.546 527.6 290.243 526.955 290.275 526.127C290.307 525.299 289.661 524.602 288.833 524.571L288.719 527.568ZM298.531 524.432C297.705 524.492 297.084 525.211 297.144 526.037C297.204 526.863 297.922 527.484 298.748 527.424L298.531 524.432ZM308.789 525.951C309.596 525.763 310.098 524.957 309.91 524.15C309.722 523.343 308.916 522.841 308.109 523.029L308.789 525.951ZM317.152 519.855C316.411 520.227 316.112 521.128 316.484 521.869C316.856 522.609 317.757 522.908 318.498 522.536L317.152 519.855ZM326.851 516.292C327.398 515.67 327.337 514.722 326.715 514.175C326.093 513.628 325.145 513.688 324.598 514.31L326.851 516.292ZM328.397 506.273C328.293 507.095 328.875 507.846 329.697 507.949C330.519 508.053 331.269 507.471 331.373 506.649L328.397 506.273ZM329.144 496.162C328.725 495.447 327.805 495.208 327.091 495.628C326.377 496.048 326.138 496.967 326.557 497.681L329.144 496.162ZM320.061 491.367C320.774 491.788 321.694 491.552 322.115 490.839C322.537 490.126 322.301 489.206 321.588 488.785L320.061 491.367ZM311.808 485.249C310.993 485.101 310.212 485.641 310.064 486.456C309.916 487.272 310.457 488.052 311.272 488.2L311.808 485.249ZM301.735 487.756C302.561 487.696 303.183 486.978 303.123 486.152C303.064 485.325 302.345 484.704 301.519 484.764L301.735 487.756ZM244.545 518.907C246.192 519.431 247.813 519.93 249.408 520.403L250.26 517.526C248.685 517.059 247.084 516.567 245.455 516.048L244.545 518.907ZM259.044 523.029C262.426 523.867 265.676 524.58 268.799 525.177L269.362 522.231C266.295 521.644 263.098 520.943 259.766 520.117L259.044 523.029ZM278.637 526.736C282.191 527.175 285.55 527.447 288.719 527.568L288.833 524.571C285.755 524.453 282.481 524.188 279.005 523.758L278.637 526.736ZM298.748 527.424C302.418 527.158 305.762 526.654 308.789 525.951L308.109 523.029C305.249 523.694 302.061 524.176 298.531 524.432L298.748 527.424ZM318.498 522.536C321.99 520.783 324.769 518.658 326.851 516.292L324.598 514.31C322.804 516.35 320.347 518.251 317.152 519.855L318.498 522.536ZM331.373 506.649C331.832 503.017 331.039 499.387 329.144 496.162L326.557 497.681C328.134 500.365 328.768 503.332 328.397 506.273L331.373 506.649ZM321.588 488.785C318.828 487.152 315.548 485.928 311.808 485.249L311.272 488.2C314.693 488.822 317.632 489.93 320.061 491.367L321.588 488.785ZM301.519 484.764C299.88 484.882 298.184 485.088 296.434 485.39L296.944 488.346C298.6 488.061 300.198 487.867 301.735 487.756L301.519 484.764Z" fill="#8D0000"/>
</svg>
