<svg width="605" height="810" viewBox="0 0 605 810" fill="none" xmlns="http://www.w3.org/2000/svg">
<path d="M241.5 100C241.5 99.1716 240.828 98.5 240 98.5C239.172 98.5 238.5 99.1716 238.5 100L241.5 100ZM327.438 318.499C328.265 318.533 328.964 317.89 328.999 317.062L329.561 303.574C329.595 302.746 328.952 302.048 328.125 302.013C327.297 301.979 326.598 302.622 326.563 303.449L326.064 315.439L314.074 314.939C313.246 314.905 312.548 315.548 312.513 316.375C312.479 317.203 313.122 317.902 313.949 317.937L327.438 318.499ZM238.812 104.992C238.904 105.815 239.646 106.408 240.469 106.316C241.292 106.224 241.885 105.483 241.794 104.659L238.812 104.992ZM243.396 114.194C243.226 113.383 242.43 112.865 241.619 113.035C240.809 113.206 240.29 114.001 240.46 114.812L243.396 114.194ZM242.75 124.466C242.959 125.268 243.778 125.749 244.579 125.541C245.381 125.332 245.862 124.514 245.654 123.712L242.75 124.466ZM248.247 133.09C248.016 132.294 247.183 131.837 246.388 132.069C245.592 132.301 245.135 133.133 245.367 133.929L248.247 133.09ZM248.226 143.353C248.474 144.143 249.316 144.583 250.106 144.334C250.897 144.086 251.336 143.244 251.088 142.454L248.226 143.353ZM254.11 151.79C253.848 151.004 252.999 150.579 252.213 150.84C251.427 151.101 251.001 151.951 251.263 152.737L254.11 151.79ZM254.43 162.05C254.701 162.832 255.556 163.247 256.339 162.975C257.121 162.703 257.535 161.848 257.263 161.066L254.43 162.05ZM260.527 170.289C260.246 169.509 259.387 169.105 258.608 169.386C257.828 169.666 257.424 170.526 257.705 171.305L260.527 170.289ZM261.081 180.531C261.37 181.307 262.233 181.703 263.01 181.414C263.786 181.125 264.182 180.262 263.893 179.485L261.081 180.531ZM267.35 188.654C267.054 187.88 266.187 187.493 265.413 187.789C264.639 188.084 264.252 188.951 264.547 189.725L267.35 188.654ZM268.096 198.889C268.399 199.661 269.269 200.041 270.04 199.738C270.811 199.436 271.191 198.565 270.889 197.794L268.096 198.889ZM274.506 206.905C274.197 206.136 273.323 205.763 272.555 206.072C271.786 206.381 271.413 207.255 271.722 208.023L274.506 206.905ZM275.423 217.127C275.738 217.893 276.615 218.259 277.381 217.944C278.147 217.629 278.513 216.752 278.198 215.986L275.423 217.127ZM281.963 225.037C281.642 224.274 280.762 223.915 279.999 224.236C279.235 224.558 278.877 225.437 279.198 226.201L281.963 225.037ZM283.048 235.243C283.376 236.004 284.258 236.355 285.019 236.027C285.78 235.7 286.131 234.817 285.803 234.056L283.048 235.243ZM289.72 243.04C289.385 242.283 288.5 241.939 287.742 242.274C286.984 242.608 286.641 243.494 286.975 244.252L289.72 243.04ZM290.984 253.222C291.326 253.977 292.215 254.312 292.969 253.97C293.724 253.628 294.059 252.74 293.717 251.985L290.984 253.222ZM297.801 260.881C297.451 260.13 296.559 259.805 295.808 260.154C295.057 260.504 294.732 261.396 295.081 262.147L297.801 260.881ZM299.275 271.016C299.634 271.762 300.53 272.077 301.277 271.718C302.023 271.359 302.338 270.463 301.979 269.716L299.275 271.016ZM306.298 278.539C305.928 277.798 305.027 277.497 304.286 277.867C303.544 278.237 303.243 279.138 303.613 279.879L306.298 278.539ZM308.094 288.659C308.478 289.393 309.385 289.677 310.119 289.293C310.853 288.909 311.137 288.003 310.753 287.269L308.094 288.659ZM315.36 295.821C314.957 295.098 314.043 294.837 313.32 295.24C312.596 295.643 312.336 296.557 312.739 297.281L315.36 295.821ZM317.738 305.871C318.171 306.577 319.095 306.799 319.801 306.366C320.507 305.932 320.729 305.009 320.295 304.303L317.738 305.871ZM325.657 312.363C325.164 311.697 324.224 311.558 323.559 312.051C322.893 312.544 322.753 313.483 323.247 314.149L325.657 312.363ZM238.5 100C238.5 101.49 238.608 103.161 238.812 104.992L241.794 104.659C241.598 102.907 241.5 101.351 241.5 100L238.5 100ZM240.46 114.812C241.088 117.796 241.856 121.026 242.75 124.466L245.654 123.712C244.769 120.307 244.012 117.124 243.396 114.194L240.46 114.812ZM245.367 133.929C246.25 136.958 247.205 140.105 248.226 143.353L251.088 142.454C250.072 139.224 249.123 136.097 248.247 133.09L245.367 133.929ZM251.263 152.737C252.274 155.778 253.331 158.887 254.43 162.05L257.263 161.066C256.169 157.914 255.116 154.818 254.11 151.79L251.263 152.737ZM257.705 171.305C258.8 174.346 259.927 177.424 261.081 180.531L263.893 179.485C262.742 176.388 261.619 173.319 260.527 170.289L257.705 171.305ZM264.547 189.725C265.71 192.766 266.894 195.824 268.096 198.889L270.889 197.794C269.69 194.736 268.509 191.687 267.35 188.654L264.547 189.725ZM271.722 208.023C272.943 211.062 274.178 214.099 275.423 217.127L278.198 215.986C276.955 212.966 275.724 209.936 274.506 206.905L271.722 208.023ZM279.198 226.201C280.476 229.236 281.76 232.253 283.048 235.243L285.803 234.056C284.519 231.074 283.237 228.065 281.963 225.037L279.198 226.201ZM286.975 244.252C288.314 247.284 289.651 250.278 290.984 253.222L293.717 251.985C292.388 249.049 291.054 246.065 289.72 243.04L286.975 244.252ZM295.081 262.147C296.491 265.175 297.891 268.135 299.275 271.016L301.979 269.716C300.6 266.847 299.206 263.898 297.801 260.881L295.081 262.147ZM303.613 279.879C305.136 282.93 306.632 285.862 308.094 288.659L310.753 287.269C309.3 284.491 307.812 281.575 306.298 278.539L303.613 279.879ZM312.739 297.281C314.474 300.398 316.145 303.274 317.738 305.871L320.295 304.303C318.729 301.748 317.079 298.91 315.36 295.821L312.739 297.281ZM323.247 314.149C324.35 315.638 325.402 316.936 326.396 318.016L328.604 315.984C327.701 315.003 326.717 313.793 325.657 312.363L323.247 314.149Z" fill="#8D0000"/>
<path d="M360.441 76.4176C360.672 75.6219 360.213 74.7899 359.418 74.5593C358.622 74.3287 357.79 74.7867 357.559 75.5824L360.441 76.4176ZM344.439 306.561C345.025 307.146 345.975 307.146 346.561 306.561L356.107 297.015C356.692 296.429 356.692 295.479 356.107 294.893C355.521 294.308 354.571 294.308 353.985 294.893L345.5 303.379L337.015 294.893C336.429 294.308 335.479 294.308 334.893 294.893C334.308 295.479 334.308 296.429 334.893 297.015L344.439 306.561ZM347.027 300.813C347.035 299.984 346.37 299.306 345.541 299.298C344.713 299.291 344.035 299.956 344.027 300.784L347.027 300.813ZM344.154 291.145C344.141 291.974 344.801 292.656 345.63 292.669C346.458 292.682 347.14 292.021 347.153 291.193L344.154 291.145ZM347.324 281.63C347.34 280.802 346.682 280.117 345.853 280.101C345.025 280.085 344.341 280.743 344.324 281.571L347.324 281.63ZM344.527 271.92C344.508 272.748 345.165 273.434 345.993 273.453C346.821 273.471 347.507 272.815 347.526 271.987L344.527 271.92ZM347.751 262.433C347.772 261.604 347.117 260.916 346.289 260.896C345.461 260.875 344.773 261.53 344.752 262.358L347.751 262.433ZM345.001 252.773C344.978 253.602 345.631 254.291 346.46 254.314C347.288 254.336 347.977 253.683 348 252.855L345.001 252.773ZM348.271 243.263C348.295 242.435 347.644 241.744 346.815 241.719C345.987 241.695 345.296 242.346 345.272 243.174L348.271 243.263ZM345.566 233.574C345.539 234.402 346.189 235.095 347.017 235.121C347.845 235.147 348.538 234.497 348.564 233.669L345.566 233.574ZM348.88 224.079C348.908 223.251 348.26 222.557 347.432 222.529C346.604 222.5 345.91 223.149 345.882 223.977L348.88 224.079ZM346.221 214.383C346.191 215.211 346.837 215.906 347.665 215.937C348.493 215.967 349.189 215.321 349.219 214.493L346.221 214.383ZM349.583 204.91C349.616 204.082 348.971 203.385 348.144 203.352C347.316 203.32 346.618 203.964 346.586 204.792L349.583 204.91ZM346.977 195.203C346.942 196.031 347.585 196.73 348.412 196.765C349.24 196.8 349.939 196.158 349.974 195.33L346.977 195.203ZM350.394 185.753C350.432 184.926 349.791 184.224 348.964 184.187C348.136 184.149 347.435 184.789 347.397 185.617L350.394 185.753ZM347.849 176.032C347.809 176.86 348.447 177.563 349.274 177.604C350.101 177.644 350.805 177.006 350.846 176.179L347.849 176.032ZM351.333 166.608C351.376 165.78 350.741 165.074 349.914 165.03C349.087 164.987 348.381 165.622 348.337 166.449L351.333 166.608ZM348.865 156.863C348.818 157.69 349.45 158.399 350.277 158.447C351.104 158.494 351.813 157.862 351.86 157.035L348.865 156.863ZM352.435 147.462C352.486 146.636 351.858 145.923 351.031 145.872C350.205 145.82 349.492 146.448 349.44 147.275L352.435 147.462ZM350.071 137.684C350.014 138.511 350.638 139.227 351.464 139.284C352.291 139.341 353.007 138.717 353.064 137.89L350.071 137.684ZM353.759 128.323C353.822 127.497 353.204 126.776 352.378 126.712C351.552 126.649 350.831 127.267 350.768 128.093L353.759 128.323ZM351.547 118.511C351.476 119.337 352.087 120.064 352.912 120.135C353.737 120.206 354.464 119.595 354.536 118.77L351.547 118.511ZM355.416 109.258C355.498 108.434 354.896 107.699 354.071 107.617C353.247 107.536 352.512 108.137 352.43 108.962L355.416 109.258ZM353.465 99.3825C353.368 100.205 353.957 100.951 354.779 101.048C355.602 101.145 356.348 100.557 356.445 99.7342L353.465 99.3825ZM357.692 90.276C357.813 89.4565 357.248 88.6936 356.428 88.5719C355.609 88.4502 354.846 89.0158 354.724 89.8353L357.692 90.276ZM356.403 80.2815C356.23 81.0917 356.747 81.8884 357.558 82.061C358.368 82.2335 359.165 81.7165 359.337 80.9063L356.403 80.2815ZM347 305.5C347 304.299 347.009 302.725 347.027 300.813L344.027 300.784C344.009 302.702 344 304.286 344 305.5H347ZM347.153 291.193C347.199 288.305 347.256 285.103 347.324 281.63L344.324 281.571C344.257 285.048 344.2 288.253 344.154 291.145L347.153 291.193ZM347.526 271.987C347.594 268.939 347.669 265.747 347.751 262.433L344.752 262.358C344.67 265.676 344.595 268.869 344.527 271.92L347.526 271.987ZM348 252.855C348.084 249.735 348.175 246.534 348.271 243.263L345.272 243.174C345.176 246.448 345.085 249.652 345.001 252.773L348 252.855ZM348.564 233.669C348.664 230.517 348.769 227.317 348.88 224.079L345.882 223.977C345.771 227.217 345.666 230.42 345.566 233.574L348.564 233.669ZM349.219 214.493C349.336 211.32 349.457 208.123 349.583 204.91L346.586 204.792C346.459 208.008 346.338 211.208 346.221 214.383L349.219 214.493ZM349.974 195.33C350.109 192.141 350.249 188.945 350.394 185.753L347.397 185.617C347.252 188.812 347.112 192.011 346.977 195.203L349.974 195.33ZM350.846 176.179C351.002 172.973 351.165 169.779 351.333 166.608L348.337 166.449C348.169 169.625 348.006 172.822 347.849 176.032L350.846 176.179ZM351.86 157.035C352.046 153.806 352.237 150.612 352.435 147.462L349.44 147.275C349.243 150.43 349.051 153.63 348.865 156.863L351.86 157.035ZM353.064 137.89C353.288 134.633 353.52 131.44 353.759 128.323L350.768 128.093C350.528 131.219 350.296 134.42 350.071 137.684L353.064 137.89ZM354.536 118.77C354.82 115.48 355.113 112.304 355.416 109.258L352.43 108.962C352.126 112.022 351.832 115.211 351.547 118.511L354.536 118.77ZM356.445 99.7342C356.846 96.3357 357.262 93.1717 357.692 90.276L354.724 89.8353C354.289 92.7664 353.869 95.9606 353.465 99.3825L356.445 99.7342ZM359.337 80.9063C359.699 79.2071 360.067 77.707 360.441 76.4176L357.559 75.5824C357.16 76.959 356.775 78.5323 356.403 80.2815L359.337 80.9063Z" fill="#8D0000"/>
<path d="M87.6092 427.552C86.8094 427.768 86.336 428.591 86.5518 429.391C86.7676 430.191 87.591 430.664 88.3908 430.448L87.6092 427.552ZM360.947 338.394C361.165 337.595 360.694 336.77 359.894 336.553L346.869 333.005C346.069 332.787 345.245 333.259 345.027 334.058C344.81 334.857 345.281 335.682 346.08 335.899L357.659 339.053L354.505 350.631C354.287 351.431 354.759 352.255 355.558 352.473C356.357 352.69 357.182 352.219 357.399 351.42L360.947 338.394ZM93.288 429.12C94.0873 428.902 94.5587 428.078 94.3409 427.279C94.1232 426.479 93.2987 426.008 92.4994 426.226L93.288 429.12ZM102.384 423.51C101.586 423.731 101.118 424.558 101.339 425.356C101.56 426.154 102.386 426.622 103.184 426.401L102.384 423.51ZM113.034 423.656C113.832 423.432 114.297 422.604 114.073 421.806C113.849 421.009 113.021 420.544 112.224 420.767L113.034 423.656ZM122.085 417.984C121.288 418.211 120.825 419.04 121.051 419.837C121.278 420.634 122.107 421.097 122.904 420.87L122.085 417.984ZM132.772 418.054C133.568 417.825 134.028 416.994 133.8 416.198C133.571 415.402 132.741 414.942 131.944 415.17L132.772 418.054ZM141.794 412.329C140.998 412.559 140.54 413.391 140.771 414.187C141.001 414.983 141.833 415.441 142.629 415.21L141.794 412.329ZM152.473 412.341C153.268 412.108 153.724 411.275 153.491 410.48C153.258 409.685 152.425 409.229 151.63 409.462L152.473 412.341ZM161.448 406.572C160.654 406.807 160.2 407.641 160.435 408.436C160.67 409.23 161.505 409.684 162.299 409.449L161.448 406.572ZM172.118 406.529C172.912 406.292 173.363 405.457 173.126 404.663C172.889 403.869 172.053 403.418 171.26 403.655L172.118 406.529ZM181.064 400.711C180.271 400.95 179.822 401.787 180.062 402.58C180.301 403.373 181.138 403.822 181.931 403.583L181.064 400.711ZM191.736 400.608C192.528 400.366 192.975 399.528 192.733 398.736C192.491 397.943 191.653 397.497 190.861 397.739L191.736 400.608ZM200.647 394.738C199.855 394.982 199.411 395.821 199.655 396.613C199.899 397.405 200.739 397.849 201.531 397.605L200.647 394.738ZM211.316 394.571C212.107 394.324 212.548 393.483 212.301 392.693C212.055 391.902 211.214 391.46 210.423 391.707L211.316 394.571ZM220.19 388.644C219.4 388.893 218.961 389.736 219.211 390.526C219.46 391.316 220.302 391.754 221.092 391.505L220.19 388.644ZM230.86 388.404C231.649 388.152 232.084 387.308 231.832 386.519C231.58 385.73 230.736 385.294 229.947 385.546L230.86 388.404ZM239.692 382.412C238.904 382.667 238.472 383.513 238.727 384.301C238.982 385.089 239.828 385.521 240.616 385.266L239.692 382.412ZM250.361 382.087C251.148 381.829 251.576 380.981 251.318 380.194C251.059 379.407 250.211 378.979 249.424 379.237L250.361 382.087ZM259.142 376.019C258.356 376.281 257.932 377.131 258.194 377.917C258.456 378.703 259.306 379.127 260.092 378.864L259.142 376.019ZM269.806 375.593C270.591 375.326 271.011 374.474 270.744 373.69C270.478 372.906 269.626 372.486 268.841 372.752L269.806 375.593ZM278.52 369.432C277.737 369.703 277.322 370.557 277.594 371.34C277.865 372.123 278.719 372.538 279.502 372.266L278.52 369.432ZM289.174 368.878C289.955 368.602 290.364 367.745 290.087 366.964C289.81 366.183 288.953 365.774 288.172 366.051L289.174 368.878ZM297.791 362.601C297.013 362.883 296.611 363.744 296.894 364.523C297.177 365.301 298.037 365.703 298.816 365.42L297.791 362.601ZM308.451 361.868C309.227 361.578 309.62 360.714 309.33 359.938C309.039 359.162 308.175 358.768 307.399 359.059L308.451 361.868ZM316.975 355.412C316.203 355.712 315.819 356.581 316.119 357.353C316.419 358.125 317.288 358.509 318.06 358.209L316.975 355.412ZM327.615 354.423C328.382 354.112 328.752 353.238 328.441 352.47C328.13 351.702 327.255 351.332 326.488 351.643L327.615 354.423ZM335.887 347.729C335.126 348.055 334.773 348.937 335.1 349.698C335.427 350.46 336.309 350.812 337.07 350.486L335.887 347.729ZM346.497 346.29C347.249 345.941 347.575 345.049 347.227 344.298C346.878 343.546 345.986 343.22 345.235 343.568L346.497 346.29ZM354.318 339.117C353.584 339.501 353.3 340.407 353.683 341.141C354.067 341.875 354.973 342.16 355.707 341.776L354.318 339.117ZM88.3908 430.448C89.9727 430.021 91.606 429.578 93.288 429.12L92.4994 426.226C90.8197 426.683 89.1887 427.126 87.6092 427.552L88.3908 430.448ZM103.184 426.401C106.345 425.526 109.633 424.61 113.034 423.656L112.224 420.767C108.826 421.721 105.541 422.636 102.384 423.51L103.184 426.401ZM122.904 420.87C126.116 419.958 129.409 419.019 132.772 418.054L131.944 415.17C128.584 416.134 125.294 417.073 122.085 417.984L122.904 420.87ZM142.629 415.21C145.86 414.273 149.144 413.316 152.473 412.341L151.63 409.462C148.303 410.436 145.022 411.393 141.794 412.329L142.629 415.21ZM162.299 409.449C165.54 408.49 168.815 407.516 172.118 406.529L171.26 403.655C167.959 404.641 164.687 405.614 161.448 406.572L162.299 409.449ZM181.931 403.583C185.181 402.602 188.451 401.61 191.736 400.608L190.861 397.739C187.579 398.739 184.312 399.731 181.064 400.711L181.931 403.583ZM201.531 397.605C204.786 396.601 208.05 395.589 211.316 394.571L210.423 391.707C207.16 392.724 203.899 393.735 200.647 394.738L201.531 397.605ZM221.092 391.505C224.353 390.476 227.611 389.442 230.86 388.404L229.947 385.546C226.701 386.583 223.447 387.616 220.19 388.644L221.092 391.505ZM240.616 385.266C243.881 384.209 247.131 383.149 250.361 382.087L249.424 379.237C246.199 380.297 242.953 381.356 239.692 382.412L240.616 385.266ZM260.092 378.864C263.36 377.773 266.6 376.682 269.806 375.593L268.841 372.752C265.64 373.84 262.405 374.929 259.142 376.019L260.092 378.864ZM279.502 372.266C282.773 371.133 285.999 370.003 289.174 368.878L288.172 366.051C285.004 367.173 281.784 368.301 278.52 369.432L279.502 372.266ZM298.816 365.42C302.098 364.228 305.313 363.043 308.451 361.868L307.399 359.059C304.271 360.23 301.065 361.411 297.791 362.601L298.816 365.42ZM318.06 358.209C321.354 356.931 324.543 355.668 327.615 354.423L326.488 351.643C323.432 352.882 320.257 354.139 316.975 355.412L318.06 358.209ZM337.07 350.486C340.402 349.056 343.551 347.656 346.497 346.29L345.235 343.568C342.319 344.921 339.197 346.309 335.887 347.729L337.07 350.486ZM355.707 341.776C357.317 340.935 358.832 340.11 360.245 339.302L358.755 336.698C357.38 337.485 355.899 338.291 354.318 339.117L355.707 341.776Z" fill="#8D0000"/>
<path d="M520.887 239.21C521.555 238.72 521.7 237.781 521.21 237.113C520.72 236.445 519.781 236.3 519.113 236.79L520.887 239.21ZM380.261 328.655C379.794 329.339 379.971 330.273 380.655 330.739L391.809 338.344C392.494 338.811 393.427 338.635 393.893 337.95C394.36 337.266 394.184 336.332 393.499 335.866L383.584 329.106L390.344 319.191C390.811 318.506 390.635 317.573 389.95 317.107C389.266 316.64 388.332 316.816 387.866 317.501L380.261 328.655ZM386.952 329.145C387.708 328.805 388.044 327.917 387.704 327.162C387.364 326.406 386.476 326.07 385.72 326.41L386.952 329.145ZM394.833 321.667C394.112 322.075 393.859 322.991 394.267 323.712C394.675 324.432 395.591 324.686 396.311 324.277L394.833 321.667ZM405.308 318.959C406.015 318.527 406.238 317.604 405.806 316.897C405.374 316.19 404.451 315.967 403.744 316.399L405.308 318.959ZM412.534 310.908C411.835 311.353 411.629 312.28 412.074 312.979C412.519 313.678 413.446 313.884 414.145 313.439L412.534 310.908ZM422.9 307.786C423.594 307.332 423.788 306.403 423.335 305.709C422.881 305.016 421.952 304.821 421.258 305.275L422.9 307.786ZM429.926 299.548C429.237 300.008 429.051 300.939 429.51 301.628C429.97 302.318 430.901 302.504 431.59 302.044L429.926 299.548ZM440.217 296.246C440.903 295.782 441.083 294.849 440.619 294.163C440.154 293.477 439.222 293.298 438.536 293.762L440.217 296.246ZM447.123 287.911C446.44 288.38 446.266 289.313 446.734 289.997C447.202 290.68 448.136 290.854 448.819 290.386L447.123 287.911ZM457.387 284.483C458.068 284.011 458.238 283.077 457.767 282.396C457.295 281.715 456.361 281.545 455.679 282.017L457.387 284.483ZM464.209 276.083C463.53 276.558 463.364 277.493 463.838 278.172C464.313 278.851 465.248 279.017 465.927 278.543L464.209 276.083ZM474.44 272.57C475.118 272.093 475.28 271.158 474.803 270.48C474.326 269.803 473.39 269.641 472.713 270.118L474.44 272.57ZM481.201 264.117C480.525 264.597 480.366 265.533 480.845 266.209C481.325 266.884 482.261 267.043 482.937 266.564L481.201 264.117ZM491.413 260.529C492.087 260.048 492.243 259.111 491.761 258.437C491.28 257.763 490.343 257.607 489.669 258.088L491.413 260.529ZM498.105 252.04C497.433 252.524 497.28 253.461 497.764 254.134C498.247 254.806 499.185 254.959 499.857 254.476L498.105 252.04ZM508.286 248.391C508.957 247.905 509.107 246.967 508.621 246.297C508.135 245.626 507.197 245.476 506.526 245.962L508.286 248.391ZM514.93 239.851C514.261 240.34 514.114 241.278 514.603 241.947C515.091 242.616 516.03 242.763 516.699 242.274L514.93 239.851ZM381.779 330.974C383.146 330.715 384.909 330.066 386.952 329.145L385.72 326.41C383.73 327.307 382.229 327.835 381.221 328.026L381.779 330.974ZM396.311 324.277C399.052 322.725 402.068 320.939 405.308 318.959L403.744 316.399C400.524 318.367 397.538 320.135 394.833 321.667L396.311 324.277ZM414.145 313.439C416.957 311.649 419.883 309.758 422.9 307.786L421.258 305.275C418.25 307.242 415.334 309.126 412.534 310.908L414.145 313.439ZM431.59 302.044C434.416 300.16 437.298 298.223 440.217 296.246L438.536 293.762C435.621 295.735 432.746 297.668 429.926 299.548L431.59 302.044ZM448.819 290.386C451.66 288.44 454.52 286.468 457.387 284.483L455.679 282.017C452.816 283.999 449.959 285.968 447.123 287.911L448.819 290.386ZM465.927 278.543C468.777 276.551 471.62 274.557 474.44 272.57L472.713 270.118C469.895 272.102 467.056 274.094 464.209 276.083L465.927 278.543ZM482.937 266.564C485.807 264.528 488.638 262.512 491.413 260.529L489.669 258.088C486.896 260.069 484.068 262.083 481.201 264.117L482.937 266.564ZM499.857 254.476C502.76 252.387 505.577 250.354 508.286 248.391L506.526 245.962C503.82 247.922 501.006 249.954 498.105 252.04L499.857 254.476ZM516.699 242.274C518.141 241.221 519.539 240.198 520.887 239.21L519.113 236.79C517.767 237.778 516.371 238.799 514.93 239.851L516.699 242.274Z" fill="#8D0000"/>
<path d="M460.441 119.918C460.671 119.122 460.213 118.29 459.418 118.059C458.622 117.829 457.79 118.287 457.559 119.082L460.441 119.918ZM361.503 313.588C361.551 314.415 362.261 315.046 363.088 314.997L376.565 314.205C377.392 314.156 378.023 313.446 377.974 312.619C377.925 311.792 377.216 311.161 376.389 311.21L364.409 311.915L363.705 299.935C363.656 299.108 362.946 298.477 362.119 298.526C361.292 298.575 360.661 299.284 360.71 300.111L361.503 313.588ZM367.19 310.522C367.667 309.844 367.504 308.908 366.826 308.432C366.149 307.955 365.213 308.118 364.737 308.795L367.19 310.522ZM370.08 300.545C369.648 301.252 369.87 302.175 370.577 302.607C371.284 303.04 372.207 302.817 372.639 302.111L370.08 300.545ZM377.664 293.626C378.078 292.908 377.831 291.991 377.114 291.577C376.396 291.163 375.479 291.41 375.065 292.127L377.664 293.626ZM379.901 283.576C379.498 284.3 379.759 285.213 380.483 285.615C381.207 286.018 382.12 285.757 382.523 285.033L379.901 283.576ZM387.278 276.362C387.673 275.634 387.402 274.724 386.674 274.329C385.945 273.934 385.035 274.205 384.641 274.934L387.278 276.362ZM389.302 266.236C388.914 266.968 389.192 267.876 389.924 268.264C390.656 268.653 391.564 268.374 391.952 267.643L389.302 266.236ZM396.539 258.924C396.923 258.19 396.638 257.284 395.904 256.901C395.169 256.517 394.263 256.802 393.88 257.536L396.539 258.924ZM398.41 248.79C398.031 249.526 398.321 250.431 399.058 250.809C399.795 251.188 400.699 250.898 401.078 250.161L398.41 248.79ZM405.569 241.368C405.944 240.629 405.649 239.726 404.91 239.352C404.172 238.977 403.269 239.272 402.894 240.011L405.569 241.368ZM407.332 231.207C406.961 231.948 407.261 232.849 408.001 233.22C408.742 233.592 409.643 233.292 410.014 232.551L407.332 231.207ZM414.415 223.716C414.782 222.973 414.478 222.074 413.736 221.706C412.993 221.339 412.094 221.642 411.726 222.385L414.415 223.716ZM416.076 213.545C415.712 214.289 416.02 215.187 416.764 215.551C417.509 215.915 418.407 215.607 418.771 214.863L416.076 213.545ZM423.086 205.987C423.447 205.241 423.134 204.344 422.388 203.984C421.642 203.623 420.745 203.936 420.385 204.682L423.086 205.987ZM424.652 195.795C424.295 196.543 424.612 197.438 425.36 197.795C426.107 198.152 427.003 197.835 427.359 197.087L424.652 195.795ZM431.586 188.164C431.939 187.415 431.617 186.521 430.868 186.169C430.118 185.816 429.224 186.138 428.872 186.887L431.586 188.164ZM433.04 177.961C432.691 178.713 433.018 179.605 433.77 179.953C434.522 180.301 435.413 179.974 435.762 179.222L433.04 177.961ZM439.875 170.266C440.218 169.512 439.885 168.622 439.131 168.279C438.377 167.936 437.487 168.269 437.144 169.023L439.875 170.266ZM441.192 160.035C440.855 160.792 441.195 161.679 441.952 162.016C442.709 162.353 443.596 162.012 443.933 161.256L441.192 160.035ZM447.915 152.194C448.244 151.434 447.894 150.551 447.134 150.221C446.374 149.892 445.491 150.242 445.162 151.002L447.915 152.194ZM448.992 141.995C448.674 142.759 449.035 143.638 449.8 143.956C450.565 144.275 451.443 143.913 451.762 143.148L448.992 141.995ZM455.495 133.929C455.797 133.158 455.416 132.288 454.645 131.986C453.873 131.684 453.003 132.065 452.701 132.836L455.495 133.929ZM456.102 123.648C455.834 124.432 456.251 125.285 457.035 125.553C457.819 125.821 458.672 125.403 458.94 124.62L456.102 123.648ZM364.121 314.497C365.018 313.488 366.048 312.145 367.19 310.522L364.737 308.795C363.625 310.374 362.669 311.615 361.879 312.503L364.121 314.497ZM372.639 302.111C374.198 299.562 375.88 296.72 377.664 293.626L375.065 292.127C373.291 295.204 371.623 298.023 370.08 300.545L372.639 302.111ZM382.523 285.033C384.058 282.273 385.646 279.376 387.278 276.362L384.641 274.934C383.013 277.938 381.43 280.825 379.901 283.576L382.523 285.033ZM391.952 267.643C393.456 264.808 394.988 261.898 396.539 258.924L393.88 257.536C392.331 260.504 390.803 263.409 389.302 266.236L391.952 267.643ZM401.078 250.161C402.565 247.271 404.063 244.336 405.569 241.368L402.894 240.011C401.391 242.974 399.894 245.904 398.41 248.79L401.078 250.161ZM410.014 232.551C411.481 229.624 412.95 226.675 414.415 223.716L411.726 222.385C410.263 225.34 408.797 228.284 407.332 231.207L410.014 232.551ZM418.771 214.863C420.219 211.902 421.66 208.94 423.086 205.987L420.385 204.682C418.96 207.63 417.522 210.588 416.076 213.545L418.771 214.863ZM427.359 197.087C428.789 194.089 430.2 191.111 431.586 188.164L428.872 186.887C427.488 189.829 426.079 192.802 424.652 195.795L427.359 197.087ZM435.762 179.222C437.169 176.185 438.542 173.195 439.875 170.266L437.144 169.023C435.814 171.946 434.444 174.93 433.04 177.961L435.762 179.222ZM443.933 161.256C445.321 158.138 446.651 155.111 447.915 152.194L445.162 151.002C443.903 153.909 442.577 156.926 441.192 160.035L443.933 161.256ZM451.762 143.148C453.127 139.87 454.377 136.786 455.495 133.929L452.701 132.836C451.593 135.669 450.351 138.733 448.992 141.995L451.762 143.148ZM458.94 124.62C459.53 122.898 460.033 121.325 460.441 119.918L457.559 119.082C457.168 120.433 456.68 121.959 456.102 123.648L458.94 124.62Z" fill="#8D0000"/>
<path d="M53.1295 426.195V423.5C55.6685 423.253 57.4394 422.842 58.442 422.27C59.4446 421.684 60.1933 420.31 60.6881 418.148H63.4615V446H59.7115V426.195H53.1295Z" fill="#8D0000"/>
<path d="M521.077 395.346C522.561 395.346 524 395.697 525.393 396.4C526.786 397.09 527.848 397.989 528.577 399.096C529.28 400.15 529.749 401.381 529.983 402.787C530.191 403.751 530.295 405.287 530.295 407.396H514.963C515.029 409.519 515.53 411.225 516.467 412.514C517.405 413.79 518.857 414.428 520.823 414.428C522.659 414.428 524.124 413.822 525.217 412.611C525.842 411.908 526.285 411.094 526.545 410.17H530.003C529.911 410.938 529.605 411.798 529.085 412.748C528.577 413.686 528.004 414.454 527.366 415.053C526.298 416.094 524.976 416.798 523.401 417.162C522.555 417.37 521.598 417.475 520.53 417.475C517.926 417.475 515.719 416.531 513.909 414.643C512.099 412.742 511.194 410.085 511.194 406.674C511.194 403.314 512.105 400.587 513.928 398.49C515.751 396.394 518.134 395.346 521.077 395.346ZM526.682 404.604C526.539 403.08 526.207 401.863 525.686 400.951C524.723 399.258 523.115 398.412 520.862 398.412C519.247 398.412 517.893 398.998 516.799 400.17C515.706 401.329 515.126 402.807 515.061 404.604H526.682Z" fill="#8D0000"/>
<path d="M425.468 371.837C425.468 374.076 425.943 375.951 426.894 377.462C427.844 378.972 429.368 379.728 431.464 379.728C433.092 379.728 434.427 379.031 435.468 377.638C436.523 376.231 437.05 374.22 437.05 371.603C437.05 368.959 436.51 367.006 435.429 365.743C434.348 364.467 433.014 363.829 431.425 363.829C429.654 363.829 428.216 364.506 427.109 365.86C426.015 367.215 425.468 369.207 425.468 371.837ZM430.761 360.763C432.363 360.763 433.704 361.101 434.785 361.778C435.41 362.169 436.119 362.853 436.913 363.829V353.263H440.292V382.052H437.128V379.142C436.308 380.431 435.338 381.362 434.218 381.935C433.098 382.507 431.816 382.794 430.371 382.794C428.04 382.794 426.022 381.817 424.316 379.864C422.61 377.898 421.757 375.287 421.757 372.032C421.757 368.985 422.532 366.349 424.081 364.122C425.644 361.882 427.871 360.763 430.761 360.763Z" fill="#8D0000"/>
<path d="M340.573 347.523C342.93 347.523 344.844 348.096 346.315 349.242C347.799 350.388 348.691 352.36 348.991 355.16H345.573C345.365 353.871 344.889 352.803 344.147 351.957C343.405 351.097 342.213 350.667 340.573 350.667C338.333 350.667 336.732 351.761 335.768 353.949C335.143 355.368 334.831 357.119 334.831 359.203C334.831 361.299 335.273 363.063 336.159 364.496C337.044 365.928 338.437 366.644 340.338 366.644C341.797 366.644 342.949 366.201 343.795 365.316C344.655 364.417 345.247 363.194 345.573 361.644H348.991C348.6 364.417 347.624 366.449 346.061 367.738C344.499 369.014 342.5 369.652 340.065 369.652C337.331 369.652 335.15 368.656 333.522 366.664C331.894 364.658 331.081 362.158 331.081 359.164C331.081 355.492 331.973 352.634 333.756 350.589C335.54 348.545 337.812 347.523 340.573 347.523Z" fill="#8D0000"/>
<path d="M247.649 356.513H251.067V366.923C251.835 365.92 252.753 365.159 253.821 364.638C254.889 364.104 256.047 363.837 257.297 363.837C259.902 363.837 262.011 364.735 263.626 366.532C265.253 368.316 266.067 370.953 266.067 374.442C266.067 377.75 265.266 380.497 263.665 382.685C262.063 384.872 259.843 385.966 257.004 385.966C255.416 385.966 254.075 385.582 252.981 384.813C252.33 384.358 251.633 383.629 250.891 382.626V385.302H247.649V356.513ZM256.79 382.86C258.691 382.86 260.11 382.105 261.047 380.595C261.998 379.084 262.473 377.092 262.473 374.618C262.473 372.418 261.998 370.595 261.047 369.149C260.11 367.704 258.723 366.981 256.887 366.981C255.286 366.981 253.879 367.574 252.669 368.759C251.471 369.944 250.872 371.897 250.872 374.618C250.872 376.584 251.119 378.179 251.614 379.403C252.538 381.708 254.264 382.86 256.79 382.86Z" fill="#8D0000"/>
<path d="M150.114 568.173C150.114 569.188 150.485 569.989 151.227 570.575C151.969 571.161 152.848 571.454 153.864 571.454C155.101 571.454 156.299 571.168 157.458 570.595C159.411 569.644 160.387 568.088 160.387 565.927V563.095C159.958 563.368 159.404 563.596 158.727 563.778C158.05 563.961 157.386 564.091 156.735 564.169L154.606 564.442C153.33 564.612 152.373 564.879 151.735 565.243C150.654 565.855 150.114 566.832 150.114 568.173ZM158.629 561.063C159.437 560.959 159.977 560.621 160.251 560.048C160.407 559.735 160.485 559.286 160.485 558.7C160.485 557.502 160.055 556.636 159.196 556.103C158.35 555.556 157.132 555.282 155.544 555.282C153.708 555.282 152.406 555.777 151.637 556.767C151.208 557.313 150.928 558.127 150.797 559.208H147.516C147.581 556.63 148.415 554.84 150.016 553.837C151.631 552.821 153.499 552.313 155.622 552.313C158.083 552.313 160.081 552.782 161.618 553.72C163.141 554.657 163.903 556.116 163.903 558.095V570.146C163.903 570.51 163.975 570.803 164.118 571.024C164.274 571.246 164.593 571.356 165.075 571.356C165.231 571.356 165.407 571.35 165.602 571.337C165.797 571.311 166.006 571.278 166.227 571.239V573.837C165.68 573.993 165.264 574.091 164.977 574.13C164.691 574.169 164.3 574.188 163.805 574.188C162.594 574.188 161.715 573.759 161.169 572.899C160.882 572.444 160.68 571.799 160.563 570.966C159.847 571.903 158.818 572.717 157.477 573.407C156.136 574.097 154.658 574.442 153.044 574.442C151.103 574.442 149.515 573.856 148.278 572.685C147.054 571.5 146.442 570.022 146.442 568.251C146.442 566.311 147.047 564.807 148.258 563.739C149.469 562.672 151.058 562.014 153.024 561.767L158.629 561.063Z" fill="#8D0000"/>
<path d="M360.023 759.035C360.075 757.577 360.329 756.509 360.785 755.832C361.605 754.634 363.187 754.035 365.531 754.035C365.752 754.035 365.98 754.042 366.214 754.055C366.449 754.068 366.716 754.087 367.015 754.113V757.316C366.65 757.29 366.384 757.277 366.214 757.277C366.058 757.264 365.908 757.258 365.765 757.258C364.697 757.258 364.059 757.538 363.851 758.098C363.643 758.645 363.538 760.051 363.538 762.316H367.015V765.09H363.499V783.137H360.023V765.09H357.113V762.316H360.023V759.035Z" fill="#8D0000"/>
<path d="M223.835 87.2627C223.965 84.8538 224.46 82.7575 225.319 80.9736C226.191 79.1898 227.884 77.5687 230.397 76.1104L234.147 73.9424C235.827 72.9658 237.005 72.1325 237.682 71.4424C238.75 70.3617 239.284 69.1247 239.284 67.7314C239.284 66.1038 238.795 64.8148 237.819 63.8643C236.842 62.9007 235.54 62.4189 233.913 62.4189C231.504 62.4189 229.837 63.3304 228.913 65.1533C228.418 66.1299 228.144 67.484 228.092 69.2158H224.518C224.557 66.7809 225.006 64.7952 225.866 63.2588C227.389 60.5505 230.078 59.1963 233.932 59.1963C237.135 59.1963 239.473 60.0622 240.944 61.7939C242.428 63.5257 243.17 65.4528 243.17 67.5752C243.17 69.8148 242.383 71.7288 240.807 73.3174C239.896 74.2419 238.262 75.3617 235.905 76.6768L233.229 78.1611C231.953 78.8643 230.95 79.5348 230.221 80.1729C228.919 81.3057 228.099 82.5622 227.76 83.9424H243.034V87.2627H223.835Z" fill="#8D0000"/>
<path d="M537.489 215.606C537.723 217.612 538.654 218.998 540.282 219.767C541.115 220.157 542.079 220.353 543.172 220.353C545.256 220.353 546.799 219.688 547.801 218.36C548.804 217.032 549.305 215.561 549.305 213.946C549.305 211.993 548.706 210.483 547.508 209.415C546.323 208.347 544.898 207.813 543.231 207.813C542.02 207.813 540.978 208.048 540.106 208.517C539.247 208.985 538.511 209.636 537.899 210.47L534.852 210.294L536.981 195.235H551.512V198.634H539.618L538.426 206.407C539.077 205.912 539.696 205.541 540.282 205.294C541.323 204.864 542.528 204.649 543.895 204.649C546.46 204.649 548.635 205.476 550.419 207.13C552.202 208.784 553.094 210.88 553.094 213.419C553.094 216.062 552.274 218.393 550.633 220.411C549.006 222.429 546.402 223.438 542.821 223.438C540.542 223.438 538.524 222.8 536.766 221.524C535.021 220.235 534.045 218.263 533.837 215.606H537.489Z" fill="#8D0000"/>
<path d="M468.821 89.2817V76.606L459.856 89.2817H468.821ZM468.879 99.1841V92.3481H456.614V88.9106L469.426 71.1372H472.395V89.2817H476.516V92.3481H472.395V99.1841H468.879Z" fill="#8D0000"/>
<path d="M358.694 58.7617C355.387 58.7617 352.984 57.8568 351.487 56.0469C350.003 54.224 349.26 52.0104 349.26 49.4062H352.932C353.088 51.2161 353.427 52.5312 353.948 53.3516C354.859 54.8229 356.506 55.5586 358.889 55.5586C360.738 55.5586 362.223 55.0638 363.342 54.0742C364.462 53.0846 365.022 51.8086 365.022 50.2461C365.022 48.319 364.43 46.9714 363.245 46.2031C362.073 45.4349 360.439 45.0508 358.342 45.0508C358.108 45.0508 357.867 45.0573 357.62 45.0703C357.385 45.0703 357.144 45.0768 356.897 45.0898V41.9844C357.262 42.0234 357.568 42.0495 357.815 42.0625C358.062 42.0755 358.329 42.082 358.616 42.082C359.931 42.082 361.012 41.8737 361.858 41.457C363.342 40.7279 364.085 39.4258 364.085 37.5508C364.085 36.1576 363.59 35.0833 362.6 34.3281C361.611 33.5729 360.458 33.1953 359.143 33.1953C356.799 33.1953 355.178 33.9766 354.28 35.5391C353.785 36.3984 353.505 37.6224 353.44 39.2109H349.963C349.963 37.1276 350.38 35.3568 351.213 33.8984C352.646 31.2943 355.165 29.9922 358.772 29.9922C361.624 29.9922 363.831 30.6302 365.393 31.9062C366.956 33.1693 367.737 35.0052 367.737 37.4141C367.737 39.1328 367.275 40.526 366.35 41.5938C365.777 42.2578 365.035 42.7786 364.124 43.1562C365.595 43.5599 366.741 44.3411 367.561 45.5C368.394 46.6458 368.811 48.0521 368.811 49.7188C368.811 52.388 367.932 54.5625 366.174 56.2422C364.417 57.9219 361.923 58.7617 358.694 58.7617Z" fill="#8D0000"/>
<path d="M241.5 100C241.5 99.1716 240.828 98.5 240 98.5C239.172 98.5 238.5 99.1716 238.5 100L241.5 100ZM327.438 318.499C328.265 318.533 328.964 317.89 328.999 317.062L329.561 303.574C329.595 302.746 328.952 302.048 328.125 302.013C327.297 301.979 326.598 302.622 326.563 303.449L326.064 315.439L314.074 314.939C313.246 314.905 312.548 315.548 312.513 316.375C312.479 317.203 313.122 317.902 313.949 317.937L327.438 318.499ZM238.812 104.992C238.904 105.815 239.646 106.408 240.469 106.316C241.292 106.224 241.885 105.483 241.794 104.659L238.812 104.992ZM243.396 114.194C243.226 113.383 242.43 112.865 241.619 113.035C240.809 113.206 240.29 114.001 240.46 114.812L243.396 114.194ZM242.75 124.466C242.959 125.268 243.778 125.749 244.579 125.541C245.381 125.332 245.862 124.514 245.654 123.712L242.75 124.466ZM248.247 133.09C248.016 132.294 247.183 131.837 246.388 132.069C245.592 132.301 245.135 133.133 245.367 133.929L248.247 133.09ZM248.226 143.353C248.474 144.143 249.316 144.583 250.106 144.334C250.897 144.086 251.336 143.244 251.088 142.454L248.226 143.353ZM254.11 151.79C253.848 151.004 252.999 150.579 252.213 150.84C251.427 151.101 251.001 151.951 251.263 152.737L254.11 151.79ZM254.43 162.05C254.701 162.832 255.556 163.247 256.339 162.975C257.121 162.703 257.535 161.848 257.263 161.066L254.43 162.05ZM260.527 170.289C260.246 169.509 259.387 169.105 258.608 169.386C257.828 169.666 257.424 170.526 257.705 171.305L260.527 170.289ZM261.081 180.531C261.37 181.307 262.233 181.703 263.01 181.414C263.786 181.125 264.182 180.262 263.893 179.485L261.081 180.531ZM267.35 188.654C267.054 187.88 266.187 187.493 265.413 187.789C264.639 188.084 264.252 188.951 264.547 189.725L267.35 188.654ZM268.096 198.889C268.399 199.661 269.269 200.041 270.04 199.738C270.811 199.436 271.191 198.565 270.889 197.794L268.096 198.889ZM274.506 206.905C274.197 206.136 273.323 205.763 272.555 206.072C271.786 206.381 271.413 207.255 271.722 208.023L274.506 206.905ZM275.423 217.127C275.738 217.893 276.615 218.259 277.381 217.944C278.147 217.629 278.513 216.752 278.198 215.986L275.423 217.127ZM281.963 225.037C281.642 224.274 280.762 223.915 279.999 224.236C279.235 224.558 278.877 225.437 279.198 226.201L281.963 225.037ZM283.048 235.243C283.376 236.004 284.258 236.355 285.019 236.027C285.78 235.7 286.131 234.817 285.803 234.056L283.048 235.243ZM289.72 243.04C289.385 242.283 288.5 241.939 287.742 242.274C286.984 242.608 286.641 243.494 286.975 244.252L289.72 243.04ZM290.984 253.222C291.326 253.977 292.215 254.312 292.969 253.97C293.724 253.628 294.059 252.74 293.717 251.985L290.984 253.222ZM297.801 260.881C297.451 260.13 296.559 259.805 295.808 260.154C295.057 260.504 294.732 261.396 295.081 262.147L297.801 260.881ZM299.275 271.016C299.634 271.762 300.53 272.077 301.277 271.718C302.023 271.359 302.338 270.463 301.979 269.716L299.275 271.016ZM306.298 278.539C305.928 277.798 305.027 277.497 304.286 277.867C303.544 278.237 303.243 279.138 303.613 279.879L306.298 278.539ZM308.094 288.659C308.478 289.393 309.385 289.677 310.119 289.293C310.853 288.909 311.137 288.003 310.753 287.269L308.094 288.659ZM315.36 295.821C314.957 295.098 314.043 294.837 313.32 295.24C312.596 295.643 312.336 296.557 312.739 297.281L315.36 295.821ZM317.738 305.871C318.171 306.577 319.095 306.799 319.801 306.366C320.507 305.932 320.729 305.009 320.295 304.303L317.738 305.871ZM325.657 312.363C325.164 311.697 324.224 311.558 323.559 312.051C322.893 312.544 322.753 313.483 323.247 314.149L325.657 312.363ZM238.5 100C238.5 101.49 238.608 103.161 238.812 104.992L241.794 104.659C241.598 102.907 241.5 101.351 241.5 100L238.5 100ZM240.46 114.812C241.088 117.796 241.856 121.026 242.75 124.466L245.654 123.712C244.769 120.307 244.012 117.124 243.396 114.194L240.46 114.812ZM245.367 133.929C246.25 136.958 247.205 140.105 248.226 143.353L251.088 142.454C250.072 139.224 249.123 136.097 248.247 133.09L245.367 133.929ZM251.263 152.737C252.274 155.778 253.331 158.887 254.43 162.05L257.263 161.066C256.169 157.914 255.116 154.818 254.11 151.79L251.263 152.737ZM257.705 171.305C258.8 174.346 259.927 177.424 261.081 180.531L263.893 179.485C262.742 176.388 261.619 173.319 260.527 170.289L257.705 171.305ZM264.547 189.725C265.71 192.766 266.894 195.824 268.096 198.889L270.889 197.794C269.69 194.736 268.509 191.687 267.35 188.654L264.547 189.725ZM271.722 208.023C272.943 211.062 274.178 214.099 275.423 217.127L278.198 215.986C276.955 212.966 275.724 209.936 274.506 206.905L271.722 208.023ZM279.198 226.201C280.476 229.236 281.76 232.253 283.048 235.243L285.803 234.056C284.519 231.074 283.237 228.065 281.963 225.037L279.198 226.201ZM286.975 244.252C288.314 247.284 289.651 250.278 290.984 253.222L293.717 251.985C292.388 249.049 291.054 246.065 289.72 243.04L286.975 244.252ZM295.081 262.147C296.491 265.175 297.891 268.135 299.275 271.016L301.979 269.716C300.6 266.847 299.206 263.898 297.801 260.881L295.081 262.147ZM303.613 279.879C305.136 282.93 306.632 285.862 308.094 288.659L310.753 287.269C309.3 284.491 307.812 281.575 306.298 278.539L303.613 279.879ZM312.739 297.281C314.474 300.398 316.145 303.274 317.738 305.871L320.295 304.303C318.729 301.748 317.079 298.91 315.36 295.821L312.739 297.281ZM323.247 314.149C324.35 315.638 325.402 316.936 326.396 318.016L328.604 315.984C327.701 315.003 326.717 313.793 325.657 312.363L323.247 314.149Z" fill="#8D0000"/>
<path d="M360.441 76.4176C360.672 75.6219 360.213 74.7899 359.418 74.5593C358.622 74.3287 357.79 74.7867 357.559 75.5824L360.441 76.4176ZM344.439 306.561C345.025 307.146 345.975 307.146 346.561 306.561L356.107 297.015C356.692 296.429 356.692 295.479 356.107 294.893C355.521 294.308 354.571 294.308 353.985 294.893L345.5 303.379L337.015 294.893C336.429 294.308 335.479 294.308 334.893 294.893C334.308 295.479 334.308 296.429 334.893 297.015L344.439 306.561ZM347.027 300.813C347.035 299.984 346.37 299.306 345.541 299.298C344.713 299.291 344.035 299.956 344.027 300.784L347.027 300.813ZM344.154 291.145C344.141 291.974 344.801 292.656 345.63 292.669C346.458 292.682 347.14 292.021 347.153 291.193L344.154 291.145ZM347.324 281.63C347.34 280.802 346.682 280.117 345.853 280.101C345.025 280.085 344.341 280.743 344.324 281.571L347.324 281.63ZM344.527 271.92C344.508 272.748 345.165 273.434 345.993 273.453C346.821 273.471 347.507 272.815 347.526 271.987L344.527 271.92ZM347.751 262.433C347.772 261.604 347.117 260.916 346.289 260.896C345.461 260.875 344.773 261.53 344.752 262.358L347.751 262.433ZM345.001 252.773C344.978 253.602 345.631 254.291 346.46 254.314C347.288 254.336 347.977 253.683 348 252.855L345.001 252.773ZM348.271 243.263C348.295 242.435 347.644 241.744 346.815 241.719C345.987 241.695 345.296 242.346 345.272 243.174L348.271 243.263ZM345.566 233.574C345.539 234.402 346.189 235.095 347.017 235.121C347.845 235.147 348.538 234.497 348.564 233.669L345.566 233.574ZM348.88 224.079C348.908 223.251 348.26 222.557 347.432 222.529C346.604 222.5 345.91 223.149 345.882 223.977L348.88 224.079ZM346.221 214.383C346.191 215.211 346.837 215.906 347.665 215.937C348.493 215.967 349.189 215.321 349.219 214.493L346.221 214.383ZM349.583 204.91C349.616 204.082 348.971 203.385 348.144 203.352C347.316 203.32 346.618 203.964 346.586 204.792L349.583 204.91ZM346.977 195.203C346.942 196.031 347.585 196.73 348.412 196.765C349.24 196.8 349.939 196.158 349.974 195.33L346.977 195.203ZM350.394 185.753C350.432 184.926 349.791 184.224 348.964 184.187C348.136 184.149 347.435 184.789 347.397 185.617L350.394 185.753ZM347.849 176.032C347.809 176.86 348.447 177.563 349.274 177.604C350.101 177.644 350.805 177.006 350.846 176.179L347.849 176.032ZM351.333 166.608C351.376 165.78 350.741 165.074 349.914 165.03C349.087 164.987 348.381 165.622 348.337 166.449L351.333 166.608ZM348.865 156.863C348.818 157.69 349.45 158.399 350.277 158.447C351.104 158.494 351.813 157.862 351.86 157.035L348.865 156.863ZM352.435 147.462C352.486 146.636 351.858 145.923 351.031 145.872C350.205 145.82 349.492 146.448 349.44 147.275L352.435 147.462ZM350.071 137.684C350.014 138.511 350.638 139.227 351.464 139.284C352.291 139.341 353.007 138.717 353.064 137.89L350.071 137.684ZM353.759 128.323C353.822 127.497 353.204 126.776 352.378 126.712C351.552 126.649 350.831 127.267 350.768 128.093L353.759 128.323ZM351.547 118.511C351.476 119.337 352.087 120.064 352.912 120.135C353.737 120.206 354.464 119.595 354.536 118.77L351.547 118.511ZM355.416 109.258C355.498 108.434 354.896 107.699 354.071 107.617C353.247 107.536 352.512 108.137 352.43 108.962L355.416 109.258ZM353.465 99.3825C353.368 100.205 353.957 100.951 354.779 101.048C355.602 101.145 356.348 100.557 356.445 99.7342L353.465 99.3825ZM357.692 90.276C357.813 89.4565 357.248 88.6936 356.428 88.5719C355.609 88.4502 354.846 89.0158 354.724 89.8353L357.692 90.276ZM356.403 80.2815C356.23 81.0917 356.747 81.8884 357.558 82.061C358.368 82.2335 359.165 81.7165 359.337 80.9063L356.403 80.2815ZM347 305.5C347 304.299 347.009 302.725 347.027 300.813L344.027 300.784C344.009 302.702 344 304.286 344 305.5H347ZM347.153 291.193C347.199 288.305 347.256 285.103 347.324 281.63L344.324 281.571C344.257 285.048 344.2 288.253 344.154 291.145L347.153 291.193ZM347.526 271.987C347.594 268.939 347.669 265.747 347.751 262.433L344.752 262.358C344.67 265.676 344.595 268.869 344.527 271.92L347.526 271.987ZM348 252.855C348.084 249.735 348.175 246.534 348.271 243.263L345.272 243.174C345.176 246.448 345.085 249.652 345.001 252.773L348 252.855ZM348.564 233.669C348.664 230.517 348.769 227.317 348.88 224.079L345.882 223.977C345.771 227.217 345.666 230.42 345.566 233.574L348.564 233.669ZM349.219 214.493C349.336 211.32 349.457 208.123 349.583 204.91L346.586 204.792C346.459 208.008 346.338 211.208 346.221 214.383L349.219 214.493ZM349.974 195.33C350.109 192.141 350.249 188.945 350.394 185.753L347.397 185.617C347.252 188.812 347.112 192.011 346.977 195.203L349.974 195.33ZM350.846 176.179C351.002 172.973 351.165 169.779 351.333 166.608L348.337 166.449C348.169 169.625 348.006 172.822 347.849 176.032L350.846 176.179ZM351.86 157.035C352.046 153.806 352.237 150.612 352.435 147.462L349.44 147.275C349.243 150.43 349.051 153.63 348.865 156.863L351.86 157.035ZM353.064 137.89C353.288 134.633 353.52 131.44 353.759 128.323L350.768 128.093C350.528 131.219 350.296 134.42 350.071 137.684L353.064 137.89ZM354.536 118.77C354.82 115.48 355.113 112.304 355.416 109.258L352.43 108.962C352.126 112.022 351.832 115.211 351.547 118.511L354.536 118.77ZM356.445 99.7342C356.846 96.3357 357.262 93.1717 357.692 90.276L354.724 89.8353C354.289 92.7664 353.869 95.9606 353.465 99.3825L356.445 99.7342ZM359.337 80.9063C359.699 79.2071 360.067 77.707 360.441 76.4176L357.559 75.5824C357.16 76.959 356.775 78.5323 356.403 80.2815L359.337 80.9063Z" fill="#8D0000"/>
<path d="M87.6092 427.552C86.8094 427.768 86.336 428.591 86.5518 429.391C86.7676 430.191 87.591 430.664 88.3908 430.448L87.6092 427.552ZM360.947 338.394C361.165 337.595 360.694 336.77 359.894 336.553L346.869 333.005C346.069 332.787 345.245 333.259 345.027 334.058C344.81 334.857 345.281 335.682 346.08 335.899L357.659 339.053L354.505 350.631C354.287 351.431 354.759 352.255 355.558 352.473C356.357 352.69 357.182 352.219 357.399 351.42L360.947 338.394ZM93.288 429.12C94.0873 428.902 94.5587 428.078 94.3409 427.279C94.1232 426.479 93.2987 426.008 92.4994 426.226L93.288 429.12ZM102.384 423.51C101.586 423.731 101.118 424.558 101.339 425.356C101.56 426.154 102.386 426.622 103.184 426.401L102.384 423.51ZM113.034 423.656C113.832 423.432 114.297 422.604 114.073 421.806C113.849 421.009 113.021 420.544 112.224 420.767L113.034 423.656ZM122.085 417.984C121.288 418.211 120.825 419.04 121.051 419.837C121.278 420.634 122.107 421.097 122.904 420.87L122.085 417.984ZM132.772 418.054C133.568 417.825 134.028 416.994 133.8 416.198C133.571 415.402 132.741 414.942 131.944 415.17L132.772 418.054ZM141.794 412.329C140.998 412.559 140.54 413.391 140.771 414.187C141.001 414.983 141.833 415.441 142.629 415.21L141.794 412.329ZM152.473 412.341C153.268 412.108 153.724 411.275 153.491 410.48C153.258 409.685 152.425 409.229 151.63 409.462L152.473 412.341ZM161.448 406.572C160.654 406.807 160.2 407.641 160.435 408.436C160.67 409.23 161.505 409.684 162.299 409.449L161.448 406.572ZM172.118 406.529C172.912 406.292 173.363 405.457 173.126 404.663C172.889 403.869 172.053 403.418 171.26 403.655L172.118 406.529ZM181.064 400.711C180.271 400.95 179.822 401.787 180.062 402.58C180.301 403.373 181.138 403.822 181.931 403.583L181.064 400.711ZM191.736 400.608C192.528 400.366 192.975 399.528 192.733 398.736C192.491 397.943 191.653 397.497 190.861 397.739L191.736 400.608ZM200.647 394.738C199.855 394.982 199.411 395.821 199.655 396.613C199.899 397.405 200.739 397.849 201.531 397.605L200.647 394.738ZM211.316 394.571C212.107 394.324 212.548 393.483 212.301 392.693C212.055 391.902 211.214 391.46 210.423 391.707L211.316 394.571ZM220.19 388.644C219.4 388.893 218.961 389.736 219.211 390.526C219.46 391.316 220.302 391.754 221.092 391.505L220.19 388.644ZM230.86 388.404C231.649 388.152 232.084 387.308 231.832 386.519C231.58 385.73 230.736 385.294 229.947 385.546L230.86 388.404ZM239.692 382.412C238.904 382.667 238.472 383.513 238.727 384.301C238.982 385.089 239.828 385.521 240.616 385.266L239.692 382.412ZM250.361 382.087C251.148 381.829 251.576 380.981 251.318 380.194C251.059 379.407 250.211 378.979 249.424 379.237L250.361 382.087ZM259.142 376.019C258.356 376.281 257.932 377.131 258.194 377.917C258.456 378.703 259.306 379.127 260.092 378.864L259.142 376.019ZM269.806 375.593C270.591 375.326 271.011 374.474 270.744 373.69C270.478 372.906 269.626 372.486 268.841 372.752L269.806 375.593ZM278.52 369.432C277.737 369.703 277.322 370.557 277.594 371.34C277.865 372.123 278.719 372.538 279.502 372.266L278.52 369.432ZM289.174 368.878C289.955 368.602 290.364 367.745 290.087 366.964C289.81 366.183 288.953 365.774 288.172 366.051L289.174 368.878ZM297.791 362.601C297.013 362.883 296.611 363.744 296.894 364.523C297.177 365.301 298.037 365.703 298.816 365.42L297.791 362.601ZM308.451 361.868C309.227 361.578 309.62 360.714 309.33 359.938C309.039 359.162 308.175 358.768 307.399 359.059L308.451 361.868ZM316.975 355.412C316.203 355.712 315.819 356.581 316.119 357.353C316.419 358.125 317.288 358.509 318.06 358.209L316.975 355.412ZM327.615 354.423C328.382 354.112 328.752 353.238 328.441 352.47C328.13 351.702 327.255 351.332 326.488 351.643L327.615 354.423ZM335.887 347.729C335.126 348.055 334.773 348.937 335.1 349.698C335.427 350.46 336.309 350.812 337.07 350.486L335.887 347.729ZM346.497 346.29C347.249 345.941 347.575 345.049 347.227 344.298C346.878 343.546 345.986 343.22 345.235 343.568L346.497 346.29ZM354.318 339.117C353.584 339.501 353.3 340.407 353.683 341.141C354.067 341.875 354.973 342.16 355.707 341.776L354.318 339.117ZM88.3908 430.448C89.9727 430.021 91.606 429.578 93.288 429.12L92.4994 426.226C90.8197 426.683 89.1887 427.126 87.6092 427.552L88.3908 430.448ZM103.184 426.401C106.345 425.526 109.633 424.61 113.034 423.656L112.224 420.767C108.826 421.721 105.541 422.636 102.384 423.51L103.184 426.401ZM122.904 420.87C126.116 419.958 129.409 419.019 132.772 418.054L131.944 415.17C128.584 416.134 125.294 417.073 122.085 417.984L122.904 420.87ZM142.629 415.21C145.86 414.273 149.144 413.316 152.473 412.341L151.63 409.462C148.303 410.436 145.022 411.393 141.794 412.329L142.629 415.21ZM162.299 409.449C165.54 408.49 168.815 407.516 172.118 406.529L171.26 403.655C167.959 404.641 164.687 405.614 161.448 406.572L162.299 409.449ZM181.931 403.583C185.181 402.602 188.451 401.61 191.736 400.608L190.861 397.739C187.579 398.739 184.312 399.731 181.064 400.711L181.931 403.583ZM201.531 397.605C204.786 396.601 208.05 395.589 211.316 394.571L210.423 391.707C207.16 392.724 203.899 393.735 200.647 394.738L201.531 397.605ZM221.092 391.505C224.353 390.476 227.611 389.442 230.86 388.404L229.947 385.546C226.701 386.583 223.447 387.616 220.19 388.644L221.092 391.505ZM240.616 385.266C243.881 384.209 247.131 383.149 250.361 382.087L249.424 379.237C246.199 380.297 242.953 381.356 239.692 382.412L240.616 385.266ZM260.092 378.864C263.36 377.773 266.6 376.682 269.806 375.593L268.841 372.752C265.64 373.84 262.405 374.929 259.142 376.019L260.092 378.864ZM279.502 372.266C282.773 371.133 285.999 370.003 289.174 368.878L288.172 366.051C285.004 367.173 281.784 368.301 278.52 369.432L279.502 372.266ZM298.816 365.42C302.098 364.228 305.313 363.043 308.451 361.868L307.399 359.059C304.271 360.23 301.065 361.411 297.791 362.601L298.816 365.42ZM318.06 358.209C321.354 356.931 324.543 355.668 327.615 354.423L326.488 351.643C323.432 352.882 320.257 354.139 316.975 355.412L318.06 358.209ZM337.07 350.486C340.402 349.056 343.551 347.656 346.497 346.29L345.235 343.568C342.319 344.921 339.197 346.309 335.887 347.729L337.07 350.486ZM355.707 341.776C357.317 340.935 358.832 340.11 360.245 339.302L358.755 336.698C357.38 337.485 355.899 338.291 354.318 339.117L355.707 341.776Z" fill="#8D0000"/>
<path d="M520.887 239.21C521.555 238.72 521.7 237.781 521.21 237.113C520.72 236.445 519.781 236.3 519.113 236.79L520.887 239.21ZM380.261 328.655C379.794 329.339 379.971 330.273 380.655 330.739L391.809 338.344C392.494 338.811 393.427 338.635 393.893 337.95C394.36 337.266 394.184 336.332 393.499 335.866L383.584 329.106L390.344 319.191C390.811 318.506 390.635 317.573 389.95 317.107C389.266 316.64 388.332 316.816 387.866 317.501L380.261 328.655ZM386.952 329.145C387.708 328.805 388.044 327.917 387.704 327.162C387.364 326.406 386.476 326.07 385.72 326.41L386.952 329.145ZM394.833 321.667C394.112 322.075 393.859 322.991 394.267 323.712C394.675 324.432 395.591 324.686 396.311 324.277L394.833 321.667ZM405.308 318.959C406.015 318.527 406.238 317.604 405.806 316.897C405.374 316.19 404.451 315.967 403.744 316.399L405.308 318.959ZM412.534 310.908C411.835 311.353 411.629 312.28 412.074 312.979C412.519 313.678 413.446 313.884 414.145 313.439L412.534 310.908ZM422.9 307.786C423.594 307.332 423.788 306.403 423.335 305.709C422.881 305.016 421.952 304.821 421.258 305.275L422.9 307.786ZM429.926 299.548C429.237 300.008 429.051 300.939 429.51 301.628C429.97 302.318 430.901 302.504 431.59 302.044L429.926 299.548ZM440.217 296.246C440.903 295.782 441.083 294.849 440.619 294.163C440.154 293.477 439.222 293.298 438.536 293.762L440.217 296.246ZM447.123 287.911C446.44 288.38 446.266 289.313 446.734 289.997C447.202 290.68 448.136 290.854 448.819 290.386L447.123 287.911ZM457.387 284.483C458.068 284.011 458.238 283.077 457.767 282.396C457.295 281.715 456.361 281.545 455.679 282.017L457.387 284.483ZM464.209 276.083C463.53 276.558 463.364 277.493 463.838 278.172C464.313 278.851 465.248 279.017 465.927 278.543L464.209 276.083ZM474.44 272.57C475.118 272.093 475.28 271.158 474.803 270.48C474.326 269.803 473.39 269.641 472.713 270.118L474.44 272.57ZM481.201 264.117C480.525 264.597 480.366 265.533 480.845 266.209C481.325 266.884 482.261 267.043 482.937 266.564L481.201 264.117ZM491.413 260.529C492.087 260.048 492.243 259.111 491.761 258.437C491.28 257.763 490.343 257.607 489.669 258.088L491.413 260.529ZM498.105 252.04C497.433 252.524 497.28 253.461 497.764 254.134C498.247 254.806 499.185 254.959 499.857 254.476L498.105 252.04ZM508.286 248.391C508.957 247.905 509.107 246.967 508.621 246.297C508.135 245.626 507.197 245.476 506.526 245.962L508.286 248.391ZM514.93 239.851C514.261 240.34 514.114 241.278 514.603 241.947C515.091 242.616 516.03 242.763 516.699 242.274L514.93 239.851ZM381.779 330.974C383.146 330.715 384.909 330.066 386.952 329.145L385.72 326.41C383.73 327.307 382.229 327.835 381.221 328.026L381.779 330.974ZM396.311 324.277C399.052 322.725 402.068 320.939 405.308 318.959L403.744 316.399C400.524 318.367 397.538 320.135 394.833 321.667L396.311 324.277ZM414.145 313.439C416.957 311.649 419.883 309.758 422.9 307.786L421.258 305.275C418.25 307.242 415.334 309.126 412.534 310.908L414.145 313.439ZM431.59 302.044C434.416 300.16 437.298 298.223 440.217 296.246L438.536 293.762C435.621 295.735 432.746 297.668 429.926 299.548L431.59 302.044ZM448.819 290.386C451.66 288.44 454.52 286.468 457.387 284.483L455.679 282.017C452.816 283.999 449.959 285.968 447.123 287.911L448.819 290.386ZM465.927 278.543C468.777 276.551 471.62 274.557 474.44 272.57L472.713 270.118C469.895 272.102 467.056 274.094 464.209 276.083L465.927 278.543ZM482.937 266.564C485.807 264.528 488.638 262.512 491.413 260.529L489.669 258.088C486.896 260.069 484.068 262.083 481.201 264.117L482.937 266.564ZM499.857 254.476C502.76 252.387 505.577 250.354 508.286 248.391L506.526 245.962C503.82 247.922 501.006 249.954 498.105 252.04L499.857 254.476ZM516.699 242.274C518.141 241.221 519.539 240.198 520.887 239.21L519.113 236.79C517.767 237.778 516.371 238.799 514.93 239.851L516.699 242.274Z" fill="#8D0000"/>
<path d="M460.441 119.918C460.671 119.122 460.213 118.29 459.418 118.059C458.622 117.829 457.79 118.287 457.559 119.082L460.441 119.918ZM361.503 313.588C361.551 314.415 362.261 315.046 363.088 314.997L376.565 314.205C377.392 314.156 378.023 313.446 377.974 312.619C377.925 311.792 377.216 311.161 376.389 311.21L364.409 311.915L363.705 299.935C363.656 299.108 362.946 298.477 362.119 298.526C361.292 298.575 360.661 299.284 360.71 300.111L361.503 313.588ZM367.19 310.522C367.667 309.844 367.504 308.908 366.826 308.432C366.149 307.955 365.213 308.118 364.737 308.795L367.19 310.522ZM370.08 300.545C369.648 301.252 369.87 302.175 370.577 302.607C371.284 303.04 372.207 302.817 372.639 302.111L370.08 300.545ZM377.664 293.626C378.078 292.908 377.831 291.991 377.114 291.577C376.396 291.163 375.479 291.41 375.065 292.127L377.664 293.626ZM379.901 283.576C379.498 284.3 379.759 285.213 380.483 285.615C381.207 286.018 382.12 285.757 382.523 285.033L379.901 283.576ZM387.278 276.362C387.673 275.634 387.402 274.724 386.674 274.329C385.945 273.934 385.035 274.205 384.641 274.934L387.278 276.362ZM389.302 266.236C388.914 266.968 389.192 267.876 389.924 268.264C390.656 268.653 391.564 268.374 391.952 267.643L389.302 266.236ZM396.539 258.924C396.923 258.19 396.638 257.284 395.904 256.901C395.169 256.517 394.263 256.802 393.88 257.536L396.539 258.924ZM398.41 248.79C398.031 249.526 398.321 250.431 399.058 250.809C399.795 251.188 400.699 250.898 401.078 250.161L398.41 248.79ZM405.569 241.368C405.944 240.629 405.649 239.726 404.91 239.352C404.172 238.977 403.269 239.272 402.894 240.011L405.569 241.368ZM407.332 231.207C406.961 231.948 407.261 232.849 408.001 233.22C408.742 233.592 409.643 233.292 410.014 232.551L407.332 231.207ZM414.415 223.716C414.782 222.973 414.478 222.074 413.736 221.706C412.993 221.339 412.094 221.642 411.726 222.385L414.415 223.716ZM416.076 213.545C415.712 214.289 416.02 215.187 416.764 215.551C417.509 215.915 418.407 215.607 418.771 214.863L416.076 213.545ZM423.086 205.987C423.447 205.241 423.134 204.344 422.388 203.984C421.642 203.623 420.745 203.936 420.385 204.682L423.086 205.987ZM424.652 195.795C424.295 196.543 424.612 197.438 425.36 197.795C426.107 198.152 427.003 197.835 427.359 197.087L424.652 195.795ZM431.586 188.164C431.939 187.415 431.617 186.521 430.868 186.169C430.118 185.816 429.224 186.138 428.872 186.887L431.586 188.164ZM433.04 177.961C432.691 178.713 433.018 179.605 433.77 179.953C434.522 180.301 435.413 179.974 435.762 179.222L433.04 177.961ZM439.875 170.266C440.218 169.512 439.885 168.622 439.131 168.279C438.377 167.936 437.487 168.269 437.144 169.023L439.875 170.266ZM441.192 160.035C440.855 160.792 441.195 161.679 441.952 162.016C442.709 162.353 443.596 162.012 443.933 161.256L441.192 160.035ZM447.915 152.194C448.244 151.434 447.894 150.551 447.134 150.221C446.374 149.892 445.491 150.242 445.162 151.002L447.915 152.194ZM448.992 141.995C448.674 142.759 449.035 143.638 449.8 143.956C450.565 144.275 451.443 143.913 451.762 143.148L448.992 141.995ZM455.495 133.929C455.797 133.158 455.416 132.288 454.645 131.986C453.873 131.684 453.003 132.065 452.701 132.836L455.495 133.929ZM456.102 123.648C455.834 124.432 456.251 125.285 457.035 125.553C457.819 125.821 458.672 125.403 458.94 124.62L456.102 123.648ZM364.121 314.497C365.018 313.488 366.048 312.145 367.19 310.522L364.737 308.795C363.625 310.374 362.669 311.615 361.879 312.503L364.121 314.497ZM372.639 302.111C374.198 299.562 375.88 296.72 377.664 293.626L375.065 292.127C373.291 295.204 371.623 298.023 370.08 300.545L372.639 302.111ZM382.523 285.033C384.058 282.273 385.646 279.376 387.278 276.362L384.641 274.934C383.013 277.938 381.43 280.825 379.901 283.576L382.523 285.033ZM391.952 267.643C393.456 264.808 394.988 261.898 396.539 258.924L393.88 257.536C392.331 260.504 390.803 263.409 389.302 266.236L391.952 267.643ZM401.078 250.161C402.565 247.271 404.063 244.336 405.569 241.368L402.894 240.011C401.391 242.974 399.894 245.904 398.41 248.79L401.078 250.161ZM410.014 232.551C411.481 229.624 412.95 226.675 414.415 223.716L411.726 222.385C410.263 225.34 408.797 228.284 407.332 231.207L410.014 232.551ZM418.771 214.863C420.219 211.902 421.66 208.94 423.086 205.987L420.385 204.682C418.96 207.63 417.522 210.588 416.076 213.545L418.771 214.863ZM427.359 197.087C428.789 194.089 430.2 191.111 431.586 188.164L428.872 186.887C427.488 189.829 426.079 192.802 424.652 195.795L427.359 197.087ZM435.762 179.222C437.169 176.185 438.542 173.195 439.875 170.266L437.144 169.023C435.814 171.946 434.444 174.93 433.04 177.961L435.762 179.222ZM443.933 161.256C445.321 158.138 446.651 155.111 447.915 152.194L445.162 151.002C443.903 153.909 442.577 156.926 441.192 160.035L443.933 161.256ZM451.762 143.148C453.127 139.87 454.377 136.786 455.495 133.929L452.701 132.836C451.593 135.669 450.351 138.733 448.992 141.995L451.762 143.148ZM458.94 124.62C459.53 122.898 460.033 121.325 460.441 119.918L457.559 119.082C457.168 120.433 456.68 121.959 456.102 123.648L458.94 124.62Z" fill="#8D0000"/>
</svg>
