<svg width="610" height="810" viewBox="0 0 610 810" fill="none" xmlns="http://www.w3.org/2000/svg">
<path d="M139.5 262C140.328 262 141 261.328 141 260.5C141 259.672 140.328 259 139.5 259V262ZM0.501028 311.944C0.470366 312.772 1.11662 313.468 1.94448 313.499L15.4352 313.999C16.2631 314.029 16.9591 313.383 16.9897 312.555C17.0204 311.727 16.3741 311.031 15.5463 311.001L3.55449 310.557L3.99863 298.565C4.02929 297.737 3.38303 297.041 2.55517 297.01C1.72732 296.98 1.03135 297.626 1.00069 298.454L0.501028 311.944ZM6.47564 309.973C7.09699 309.425 7.15652 308.477 6.6086 307.856C6.06068 307.234 5.1128 307.175 4.49145 307.723L6.47564 309.973ZM11.754 301.642C11.1055 302.157 10.9975 303.101 11.5129 303.749C12.0283 304.398 12.9719 304.506 13.6205 303.991L11.754 301.642ZM21.0615 298.38C21.7354 297.899 21.8912 296.962 21.4094 296.288C20.9277 295.614 19.9908 295.458 19.3168 295.94L21.0615 298.38ZM27.158 290.628C26.4607 291.075 26.2579 292.003 26.7051 292.701C27.1523 293.398 28.0801 293.601 28.7775 293.154L27.158 290.628ZM36.7465 288.32C37.4653 287.908 37.7142 286.991 37.3023 286.273C36.8905 285.554 35.9739 285.305 35.2551 285.717L36.7465 288.32ZM43.5851 281.214C42.8469 281.59 42.5532 282.493 42.9291 283.231C43.305 283.969 44.2082 284.263 44.9464 283.887L43.5851 281.214ZM53.3546 279.861C54.1102 279.522 54.4476 278.634 54.1081 277.878C53.7686 277.123 52.8807 276.785 52.1251 277.125L53.3546 279.861ZM60.8518 273.454C60.0807 273.756 59.7012 274.627 60.004 275.398C60.3069 276.169 61.1775 276.549 61.9485 276.246L60.8518 273.454ZM70.706 273.044C71.4906 272.778 71.9109 271.926 71.6448 271.141C71.3787 270.357 70.527 269.937 69.7425 270.203L70.706 273.044ZM78.7746 267.372C77.9785 267.602 77.5191 268.433 77.7485 269.229C77.9778 270.025 78.8091 270.484 79.6051 270.255L78.7746 267.372ZM88.6244 267.879C89.4301 267.686 89.9269 266.877 89.7341 266.071C89.5414 265.265 88.7319 264.768 87.9263 264.961L88.6244 267.879ZM97.1763 262.967C96.3628 263.123 95.8302 263.909 95.9867 264.723C96.1432 265.536 96.9296 266.069 97.7431 265.913L97.1763 262.967ZM106.942 264.352C107.761 264.231 108.328 263.469 108.207 262.649C108.086 261.83 107.324 261.263 106.505 261.384L106.942 264.352ZM115.892 260.208C115.068 260.293 114.469 261.03 114.554 261.854C114.639 262.679 115.377 263.277 116.201 263.192L115.892 260.208ZM125.503 262.426C126.33 262.375 126.959 261.664 126.908 260.837C126.857 260.01 126.146 259.381 125.319 259.432L125.503 262.426ZM134.77 259.048C133.942 259.064 133.284 259.749 133.301 260.578C133.318 261.406 134.003 262.064 134.831 262.047L134.77 259.048ZM3.02068 313.099C4.15854 312.043 5.31027 311 6.47564 309.973L4.49145 307.723C3.30682 308.767 2.13604 309.827 0.979323 310.901L3.02068 313.099ZM13.6205 303.991C16.0491 302.061 18.53 300.19 21.0615 298.38L19.3168 295.94C16.7441 297.779 14.2225 299.68 11.754 301.642L13.6205 303.991ZM28.7775 293.154C31.3864 291.481 34.0433 289.869 36.7465 288.32L35.2551 285.717C32.5087 287.291 29.8091 288.928 27.158 290.628L28.7775 293.154ZM44.9464 283.887C47.7062 282.482 50.5094 281.139 53.3546 279.861L52.1251 277.125C49.2357 278.423 46.3885 279.786 43.5851 281.214L44.9464 283.887ZM61.9485 276.246C64.8293 275.115 67.749 274.047 70.706 273.044L69.7425 270.203C66.7409 271.221 63.7768 272.305 60.8518 273.454L61.9485 276.246ZM79.6051 270.255C82.5776 269.399 85.5845 268.606 88.6244 267.879L87.9263 264.961C84.8422 265.699 81.7911 266.503 78.7746 267.372L79.6051 270.255ZM97.7431 265.913C100.78 265.328 103.846 264.808 106.942 264.352L106.505 261.384C103.366 261.846 100.256 262.374 97.1763 262.967L97.7431 265.913ZM116.201 263.192C119.276 262.873 122.377 262.618 125.503 262.426L125.319 259.432C122.152 259.626 119.009 259.885 115.892 260.208L116.201 263.192ZM134.831 262.047C136.382 262.016 137.938 262 139.5 262V259C137.918 259 136.341 259.016 134.77 259.048L134.831 262.047Z" fill="#8D0000"/>
<path d="M544.489 298.91C543.71 298.628 543.308 297.768 543.59 296.989C543.872 296.21 544.732 295.808 545.511 296.09L544.489 298.91ZM606.458 350.853C606.263 351.659 605.452 352.153 604.647 351.958L591.527 348.777C590.722 348.582 590.227 347.771 590.422 346.966C590.617 346.161 591.428 345.666 592.233 345.862L603.896 348.689L606.723 337.027C606.918 336.222 607.729 335.727 608.534 335.922C609.339 336.117 609.834 336.928 609.638 337.733L606.458 350.853ZM601.027 346.995C600.577 346.299 600.776 345.37 601.472 344.92C602.167 344.47 603.096 344.669 603.546 345.365L601.027 346.995ZM597.698 336.889C598.189 337.556 598.047 338.495 597.38 338.986C596.713 339.478 595.774 339.336 595.283 338.669L597.698 336.889ZM589.015 330.746C588.478 330.115 588.554 329.169 589.185 328.632C589.816 328.095 590.763 328.171 591.3 328.802L589.015 330.746ZM584.308 321.205C584.893 321.791 584.892 322.741 584.305 323.326C583.719 323.911 582.769 323.91 582.184 323.324L584.308 321.205ZM574.768 316.507C574.133 315.974 574.051 315.028 574.584 314.394C575.117 313.759 576.063 313.677 576.697 314.21L574.768 316.507ZM568.471 307.935C569.153 308.405 569.325 309.339 568.855 310.021C568.385 310.704 567.45 310.876 566.768 310.405L568.471 307.935ZM558.217 305.123C557.491 304.724 557.225 303.812 557.624 303.086C558.024 302.36 558.936 302.095 559.662 302.494L558.217 305.123ZM550.338 297.98C551.101 298.302 551.459 299.181 551.137 299.945C550.815 300.708 549.935 301.066 549.172 300.744L550.338 297.98ZM603.719 351.281C602.851 349.857 601.955 348.427 601.027 346.995L603.546 345.365C604.488 346.821 605.4 348.274 606.281 349.719L603.719 351.281ZM595.283 338.669C593.313 335.996 591.227 333.346 589.015 330.746L591.3 328.802C593.561 331.459 595.69 334.165 597.698 336.889L595.283 338.669ZM582.184 323.324C579.837 320.972 577.368 318.692 574.768 316.507L576.697 314.21C579.369 316.454 581.903 318.795 584.308 321.205L582.184 323.324ZM566.768 310.405C564.047 308.53 561.198 306.762 558.217 305.123L559.662 302.494C562.735 304.183 565.669 306.004 568.471 307.935L566.768 310.405ZM549.172 300.744C547.643 300.099 546.082 299.487 544.489 298.91L545.511 296.09C547.152 296.684 548.761 297.315 550.338 297.98L549.172 300.744Z" fill="#8D0000"/>
<path d="M17.1295 425.195V422.5C19.6685 422.253 21.4394 421.842 22.442 421.27C23.4446 420.684 24.1933 419.31 24.6881 417.148H27.4615V445H23.7115V425.195H17.1295Z" fill="#8D0000"/>
<path d="M485.077 394.346C486.561 394.346 488 394.697 489.393 395.4C490.786 396.09 491.848 396.989 492.577 398.096C493.28 399.15 493.749 400.381 493.983 401.787C494.191 402.751 494.295 404.287 494.295 406.396H478.963C479.029 408.519 479.53 410.225 480.467 411.514C481.405 412.79 482.857 413.428 484.823 413.428C486.659 413.428 488.124 412.822 489.217 411.611C489.842 410.908 490.285 410.094 490.545 409.17H494.003C493.911 409.938 493.605 410.798 493.085 411.748C492.577 412.686 492.004 413.454 491.366 414.053C490.298 415.094 488.976 415.798 487.401 416.162C486.555 416.37 485.598 416.475 484.53 416.475C481.926 416.475 479.719 415.531 477.909 413.643C476.099 411.742 475.194 409.085 475.194 405.674C475.194 402.314 476.105 399.587 477.928 397.49C479.751 395.394 482.134 394.346 485.077 394.346ZM490.682 403.604C490.539 402.08 490.207 400.863 489.686 399.951C488.723 398.258 487.115 397.412 484.862 397.412C483.247 397.412 481.893 397.998 480.799 399.17C479.706 400.329 479.126 401.807 479.061 403.604H490.682Z" fill="#8D0000"/>
<path d="M389.468 370.837C389.468 373.076 389.943 374.951 390.894 376.462C391.844 377.972 393.368 378.728 395.464 378.728C397.092 378.728 398.427 378.031 399.468 376.638C400.523 375.231 401.05 373.22 401.05 370.603C401.05 367.959 400.51 366.006 399.429 364.743C398.348 363.467 397.014 362.829 395.425 362.829C393.654 362.829 392.216 363.506 391.109 364.86C390.015 366.215 389.468 368.207 389.468 370.837ZM394.761 359.763C396.363 359.763 397.704 360.101 398.785 360.778C399.41 361.169 400.119 361.853 400.913 362.829V352.263H404.292V381.052H401.128V378.142C400.308 379.431 399.338 380.362 398.218 380.935C397.098 381.507 395.816 381.794 394.371 381.794C392.04 381.794 390.022 380.817 388.316 378.864C386.61 376.898 385.757 374.287 385.757 371.032C385.757 367.985 386.532 365.349 388.081 363.122C389.644 360.882 391.871 359.763 394.761 359.763Z" fill="#8D0000"/>
<path d="M304.573 346.523C306.93 346.523 308.844 347.096 310.315 348.242C311.799 349.388 312.691 351.361 312.991 354.16H309.573C309.365 352.871 308.889 351.803 308.147 350.957C307.405 350.098 306.213 349.668 304.573 349.668C302.333 349.668 300.732 350.762 299.768 352.949C299.143 354.368 298.831 356.12 298.831 358.203C298.831 360.299 299.273 362.064 300.159 363.496C301.044 364.928 302.437 365.645 304.338 365.645C305.797 365.645 306.949 365.202 307.795 364.316C308.655 363.418 309.247 362.194 309.573 360.645H312.991C312.6 363.418 311.624 365.449 310.061 366.738C308.499 368.014 306.5 368.652 304.065 368.652C301.331 368.652 299.15 367.656 297.522 365.664C295.894 363.659 295.081 361.159 295.081 358.164C295.081 354.492 295.973 351.634 297.756 349.59C299.54 347.546 301.812 346.523 304.573 346.523Z" fill="#8D0000"/>
<path d="M211.649 355.513H215.067V365.923C215.835 364.92 216.753 364.159 217.821 363.638C218.889 363.104 220.047 362.837 221.297 362.837C223.902 362.837 226.011 363.735 227.626 365.532C229.253 367.316 230.067 369.953 230.067 373.442C230.067 376.75 229.266 379.497 227.665 381.685C226.063 383.872 223.843 384.966 221.004 384.966C219.416 384.966 218.075 384.582 216.981 383.813C216.33 383.358 215.633 382.629 214.891 381.626V384.302H211.649V355.513ZM220.79 381.86C222.691 381.86 224.11 381.105 225.047 379.595C225.998 378.084 226.473 376.092 226.473 373.618C226.473 371.418 225.998 369.595 225.047 368.149C224.11 366.704 222.723 365.981 220.887 365.981C219.286 365.981 217.879 366.574 216.669 367.759C215.471 368.944 214.872 370.897 214.872 373.618C214.872 375.584 215.119 377.179 215.614 378.403C216.538 380.708 218.264 381.86 220.79 381.86Z" fill="#8D0000"/>
<path d="M114.114 567.173C114.114 568.188 114.485 568.989 115.227 569.575C115.969 570.161 116.848 570.454 117.864 570.454C119.101 570.454 120.299 570.168 121.458 569.595C123.411 568.644 124.387 567.088 124.387 564.927V562.095C123.958 562.368 123.404 562.596 122.727 562.778C122.05 562.961 121.386 563.091 120.735 563.169L118.606 563.442C117.33 563.612 116.373 563.879 115.735 564.243C114.654 564.855 114.114 565.832 114.114 567.173ZM122.629 560.063C123.437 559.959 123.977 559.621 124.251 559.048C124.407 558.735 124.485 558.286 124.485 557.7C124.485 556.502 124.055 555.636 123.196 555.103C122.35 554.556 121.132 554.282 119.544 554.282C117.708 554.282 116.406 554.777 115.637 555.767C115.208 556.313 114.928 557.127 114.797 558.208H111.516C111.581 555.63 112.415 553.84 114.016 552.837C115.631 551.821 117.499 551.313 119.622 551.313C122.083 551.313 124.081 551.782 125.618 552.72C127.141 553.657 127.903 555.116 127.903 557.095V569.146C127.903 569.51 127.975 569.803 128.118 570.024C128.274 570.246 128.593 570.356 129.075 570.356C129.231 570.356 129.407 570.35 129.602 570.337C129.797 570.311 130.006 570.278 130.227 570.239V572.837C129.68 572.993 129.264 573.091 128.977 573.13C128.691 573.169 128.3 573.188 127.805 573.188C126.594 573.188 125.715 572.759 125.169 571.899C124.882 571.444 124.68 570.799 124.563 569.966C123.847 570.903 122.818 571.717 121.477 572.407C120.136 573.097 118.658 573.442 117.044 573.442C115.103 573.442 113.515 572.856 112.278 571.685C111.054 570.5 110.442 569.022 110.442 567.251C110.442 565.311 111.047 563.807 112.258 562.739C113.469 561.672 115.058 561.014 117.024 560.767L122.629 560.063Z" fill="#8D0000"/>
<path d="M324.023 758.035C324.075 756.577 324.329 755.509 324.785 754.832C325.605 753.634 327.187 753.035 329.531 753.035C329.752 753.035 329.98 753.042 330.214 753.055C330.449 753.068 330.716 753.087 331.015 753.113V756.316C330.65 756.29 330.384 756.277 330.214 756.277C330.058 756.264 329.908 756.258 329.765 756.258C328.697 756.258 328.059 756.538 327.851 757.098C327.643 757.645 327.538 759.051 327.538 761.316H331.015V764.09H327.499V782.137H324.023V764.09H321.113V761.316H324.023V758.035Z" fill="#8D0000"/>
<path d="M187.835 86.2627C187.965 83.8538 188.46 81.7575 189.319 79.9736C190.191 78.1898 191.884 76.5687 194.397 75.1104L198.147 72.9424C199.827 71.9658 201.005 71.1325 201.682 70.4424C202.75 69.3617 203.284 68.1247 203.284 66.7314C203.284 65.1038 202.795 63.8148 201.819 62.8643C200.842 61.9007 199.54 61.4189 197.913 61.4189C195.504 61.4189 193.837 62.3304 192.913 64.1533C192.418 65.1299 192.144 66.484 192.092 68.2158H188.518C188.557 65.7809 189.006 63.7952 189.866 62.2588C191.389 59.5505 194.078 58.1963 197.932 58.1963C201.135 58.1963 203.473 59.0622 204.944 60.7939C206.428 62.5257 207.17 64.4528 207.17 66.5752C207.17 68.8148 206.383 70.7288 204.807 72.3174C203.896 73.2419 202.262 74.3617 199.905 75.6768L197.229 77.1611C195.953 77.8643 194.95 78.5348 194.221 79.1729C192.919 80.3057 192.099 81.5622 191.76 82.9424H207.034V86.2627H187.835Z" fill="#8D0000"/>
<path d="M501.489 214.606C501.723 216.612 502.654 217.998 504.282 218.767C505.115 219.157 506.079 219.353 507.172 219.353C509.256 219.353 510.799 218.688 511.801 217.36C512.804 216.032 513.305 214.561 513.305 212.946C513.305 210.993 512.706 209.483 511.508 208.415C510.323 207.347 508.898 206.813 507.231 206.813C506.02 206.813 504.978 207.048 504.106 207.517C503.247 207.985 502.511 208.636 501.899 209.47L498.852 209.294L500.981 194.235H515.512V197.634H503.618L502.426 205.407C503.077 204.912 503.696 204.541 504.282 204.294C505.323 203.864 506.528 203.649 507.895 203.649C510.46 203.649 512.635 204.476 514.419 206.13C516.202 207.784 517.094 209.88 517.094 212.419C517.094 215.062 516.274 217.393 514.633 219.411C513.006 221.429 510.402 222.438 506.821 222.438C504.542 222.438 502.524 221.8 500.766 220.524C499.021 219.235 498.045 217.263 497.837 214.606H501.489Z" fill="#8D0000"/>
<path d="M432.821 88.2812V75.6055L423.856 88.2812H432.821ZM432.879 98.1836V91.3477H420.614V87.9102L433.426 70.1367H436.395V88.2812H440.516V91.3477H436.395V98.1836H432.879Z" fill="#8D0000"/>
<path d="M322.694 57.7617C319.387 57.7617 316.984 56.8568 315.487 55.0469C314.003 53.224 313.26 51.0104 313.26 48.4062H316.932C317.088 50.2161 317.427 51.5312 317.948 52.3516C318.859 53.8229 320.506 54.5586 322.889 54.5586C324.738 54.5586 326.223 54.0638 327.342 53.0742C328.462 52.0846 329.022 50.8086 329.022 49.2461C329.022 47.319 328.43 45.9714 327.245 45.2031C326.073 44.4349 324.439 44.0508 322.342 44.0508C322.108 44.0508 321.867 44.0573 321.62 44.0703C321.385 44.0703 321.144 44.0768 320.897 44.0898V40.9844C321.262 41.0234 321.568 41.0495 321.815 41.0625C322.062 41.0755 322.329 41.082 322.616 41.082C323.931 41.082 325.012 40.8737 325.858 40.457C327.342 39.7279 328.085 38.4258 328.085 36.5508C328.085 35.1576 327.59 34.0833 326.6 33.3281C325.611 32.5729 324.458 32.1953 323.143 32.1953C320.799 32.1953 319.178 32.9766 318.28 34.5391C317.785 35.3984 317.505 36.6224 317.44 38.2109H313.963C313.963 36.1276 314.38 34.3568 315.213 32.8984C316.646 30.2943 319.165 28.9922 322.772 28.9922C325.624 28.9922 327.831 29.6302 329.393 30.9062C330.956 32.1693 331.737 34.0052 331.737 36.4141C331.737 38.1328 331.275 39.526 330.35 40.5938C329.777 41.2578 329.035 41.7786 328.124 42.1562C329.595 42.5599 330.741 43.3411 331.561 44.5C332.394 45.6458 332.811 47.0521 332.811 48.7188C332.811 51.388 331.932 53.5625 330.174 55.2422C328.417 56.9219 325.923 57.7617 322.694 57.7617Z" fill="#8D0000"/>
</svg>
