<svg width="605" height="810" viewBox="0 0 605 810" fill="none" xmlns="http://www.w3.org/2000/svg">
<path d="M239.901 430.485V427.79C242.44 427.543 244.211 427.132 245.213 426.56C246.216 425.974 246.965 424.6 247.459 422.438H250.233V450.29H246.483V430.485H239.901Z" fill="#8D0000"/>
<path d="M153.381 404.064C154.866 404.064 156.305 404.416 157.698 405.119C159.091 405.809 160.152 406.708 160.881 407.814C161.584 408.869 162.053 410.1 162.288 411.506C162.496 412.469 162.6 414.006 162.6 416.115H147.268C147.333 418.238 147.834 419.943 148.772 421.232C149.709 422.508 151.161 423.146 153.127 423.146C154.963 423.146 156.428 422.541 157.522 421.33C158.147 420.627 158.59 419.813 158.85 418.889H162.307C162.216 419.657 161.91 420.516 161.389 421.467C160.881 422.404 160.308 423.173 159.67 423.771C158.603 424.813 157.281 425.516 155.706 425.881C154.859 426.089 153.902 426.193 152.834 426.193C150.23 426.193 148.023 425.249 146.213 423.361C144.403 421.46 143.499 418.804 143.499 415.393C143.499 412.033 144.41 409.305 146.233 407.209C148.056 405.113 150.439 404.064 153.381 404.064ZM158.987 413.322C158.844 411.799 158.512 410.581 157.991 409.67C157.027 407.977 155.419 407.131 153.166 407.131C151.552 407.131 150.198 407.717 149.104 408.889C148.01 410.048 147.431 411.525 147.366 413.322H158.987Z" fill="#8D0000"/>
<path d="M165.082 385.803C165.082 388.042 165.557 389.917 166.508 391.428C167.458 392.938 168.982 393.693 171.078 393.693C172.706 393.693 174.04 392.997 175.082 391.604C176.137 390.197 176.664 388.186 176.664 385.568C176.664 382.925 176.124 380.972 175.043 379.709C173.962 378.433 172.628 377.795 171.039 377.795C169.268 377.795 167.83 378.472 166.723 379.826C165.629 381.18 165.082 383.173 165.082 385.803ZM170.375 374.729C171.977 374.729 173.318 375.067 174.399 375.744C175.024 376.135 175.733 376.818 176.527 377.795V367.229H179.906V396.018H176.742V393.107C175.922 394.396 174.952 395.327 173.832 395.9C172.712 396.473 171.43 396.76 169.985 396.76C167.654 396.76 165.636 395.783 163.93 393.83C162.224 391.864 161.371 389.253 161.371 385.998C161.371 382.951 162.146 380.314 163.695 378.088C165.258 375.848 167.485 374.729 170.375 374.729Z" fill="#8D0000"/>
<path d="M190.807 363.457C193.164 363.457 195.078 364.03 196.549 365.176C198.034 366.322 198.926 368.294 199.225 371.094H195.807C195.599 369.805 195.124 368.737 194.381 367.891C193.639 367.031 192.448 366.602 190.807 366.602C188.568 366.602 186.966 367.695 186.002 369.883C185.377 371.302 185.065 373.053 185.065 375.137C185.065 377.233 185.508 378.997 186.393 380.43C187.278 381.862 188.672 382.578 190.573 382.578C192.031 382.578 193.183 382.135 194.03 381.25C194.889 380.352 195.482 379.128 195.807 377.578H199.225C198.834 380.352 197.858 382.383 196.295 383.672C194.733 384.948 192.734 385.586 190.299 385.586C187.565 385.586 185.384 384.59 183.756 382.598C182.129 380.592 181.315 378.092 181.315 375.098C181.315 371.426 182.207 368.568 183.991 366.523C185.775 364.479 188.047 363.457 190.807 363.457Z" fill="#8D0000"/>
<path d="M198.368 369.987H201.786V380.397C202.554 379.395 203.472 378.633 204.54 378.112C205.607 377.578 206.766 377.312 208.016 377.312C210.62 377.312 212.73 378.21 214.344 380.007C215.972 381.791 216.786 384.427 216.786 387.917C216.786 391.224 215.985 393.972 214.383 396.159C212.782 398.347 210.562 399.44 207.723 399.44C206.135 399.44 204.793 399.056 203.7 398.288C203.049 397.832 202.352 397.103 201.61 396.101V398.776H198.368V369.987ZM207.508 396.335C209.409 396.335 210.829 395.58 211.766 394.069C212.717 392.559 213.192 390.567 213.192 388.093C213.192 385.892 212.717 384.069 211.766 382.624C210.829 381.179 209.442 380.456 207.606 380.456C206.004 380.456 204.598 381.049 203.387 382.233C202.189 383.418 201.59 385.371 201.59 388.093C201.59 390.059 201.838 391.654 202.333 392.878C203.257 395.183 204.982 396.335 207.508 396.335Z" fill="#8D0000"/>
<path d="M221.846 553.134C221.846 554.149 222.217 554.95 222.959 555.536C223.702 556.122 224.581 556.415 225.596 556.415C226.833 556.415 228.031 556.129 229.19 555.556C231.143 554.605 232.12 553.049 232.12 550.888V548.056C231.69 548.329 231.137 548.557 230.459 548.739C229.782 548.922 229.118 549.052 228.467 549.13L226.338 549.403C225.062 549.573 224.105 549.84 223.467 550.204C222.387 550.816 221.846 551.793 221.846 553.134ZM230.362 546.024C231.169 545.92 231.709 545.582 231.983 545.009C232.139 544.696 232.217 544.247 232.217 543.661C232.217 542.463 231.788 541.597 230.928 541.063C230.082 540.517 228.864 540.243 227.276 540.243C225.44 540.243 224.138 540.738 223.37 541.728C222.94 542.274 222.66 543.088 222.53 544.169H219.249C219.314 541.591 220.147 539.8 221.749 538.798C223.363 537.782 225.232 537.274 227.354 537.274C229.815 537.274 231.814 537.743 233.35 538.681C234.874 539.618 235.635 541.076 235.635 543.056V555.106C235.635 555.471 235.707 555.764 235.85 555.985C236.006 556.207 236.325 556.317 236.807 556.317C236.963 556.317 237.139 556.311 237.334 556.298C237.53 556.272 237.738 556.239 237.959 556.2V558.798C237.413 558.954 236.996 559.052 236.709 559.091C236.423 559.13 236.032 559.149 235.538 559.149C234.327 559.149 233.448 558.72 232.901 557.86C232.614 557.405 232.413 556.76 232.295 555.927C231.579 556.864 230.551 557.678 229.209 558.368C227.868 559.058 226.39 559.403 224.776 559.403C222.836 559.403 221.247 558.817 220.01 557.646C218.786 556.461 218.174 554.983 218.174 553.212C218.174 551.272 218.78 549.768 219.991 548.7C221.202 547.632 222.79 546.975 224.756 546.728L230.362 546.024Z" fill="#8D0000"/>
<path d="M183.522 712.311C183.574 710.852 183.828 709.785 184.283 709.107C185.104 707.91 186.686 707.311 189.029 707.311C189.251 707.311 189.479 707.317 189.713 707.33C189.947 707.343 190.214 707.363 190.514 707.389V710.592C190.149 710.566 189.882 710.553 189.713 710.553C189.557 710.54 189.407 710.533 189.264 710.533C188.196 710.533 187.558 710.813 187.35 711.373C187.141 711.92 187.037 713.326 187.037 715.592H190.514V718.365H186.998V736.412H183.522V718.365H180.611V715.592H183.522V712.311Z" fill="#8D0000"/>
<path d="M201.956 145.835C202.086 143.426 202.581 141.33 203.44 139.546C204.312 137.762 206.005 136.141 208.518 134.683L212.268 132.515C213.948 131.538 215.126 130.705 215.803 130.015C216.871 128.934 217.405 127.697 217.405 126.304C217.405 124.676 216.916 123.387 215.94 122.437C214.963 121.473 213.661 120.991 212.034 120.991C209.625 120.991 207.958 121.903 207.034 123.726C206.539 124.702 206.265 126.056 206.213 127.788H202.639C202.678 125.353 203.127 123.368 203.987 121.831C205.51 119.123 208.199 117.769 212.053 117.769C215.256 117.769 217.594 118.634 219.065 120.366C220.549 122.098 221.291 124.025 221.291 126.147C221.291 128.387 220.504 130.301 218.928 131.89C218.017 132.814 216.383 133.934 214.026 135.249L211.35 136.733C210.074 137.437 209.071 138.107 208.342 138.745C207.04 139.878 206.22 141.134 205.881 142.515H221.155V145.835H201.956Z" fill="#8D0000"/>
<path d="M142.387 253.68C142.622 255.685 143.553 257.072 145.18 257.84C146.013 258.23 146.977 258.426 148.071 258.426C150.154 258.426 151.697 257.762 152.7 256.434C153.702 255.105 154.204 253.634 154.204 252.02C154.204 250.066 153.605 248.556 152.407 247.488C151.222 246.421 149.796 245.887 148.129 245.887C146.918 245.887 145.877 246.121 145.004 246.59C144.145 247.059 143.409 247.71 142.797 248.543L139.75 248.367L141.879 233.309H156.411V236.707H144.516L143.325 244.48C143.976 243.986 144.594 243.615 145.18 243.367C146.222 242.938 147.426 242.723 148.793 242.723C151.359 242.723 153.533 243.549 155.317 245.203C157.101 246.857 157.993 248.953 157.993 251.492C157.993 254.135 157.172 256.466 155.532 258.484C153.904 260.503 151.3 261.512 147.719 261.512C145.441 261.512 143.422 260.874 141.665 259.598C139.92 258.309 138.943 256.336 138.735 253.68H142.387Z" fill="#8D0000"/>
<path d="M166.374 146.05V133.374L157.409 146.05H166.374ZM166.432 155.952V149.116H154.166V145.679L166.979 127.905H169.948V146.05H174.069V149.116H169.948V155.952H166.432Z" fill="#8D0000"/>
<path d="M185.438 121.762C182.131 121.762 179.728 120.857 178.231 119.047C176.747 117.224 176.004 115.01 176.004 112.406H179.676C179.833 114.216 180.171 115.531 180.692 116.352C181.603 117.823 183.25 118.559 185.633 118.559C187.482 118.559 188.967 118.064 190.086 117.074C191.206 116.085 191.766 114.809 191.766 113.246C191.766 111.319 191.174 109.971 189.989 109.203C188.817 108.435 187.183 108.051 185.086 108.051C184.852 108.051 184.611 108.057 184.364 108.07C184.129 108.07 183.888 108.077 183.641 108.09V104.984C184.006 105.023 184.312 105.049 184.559 105.062C184.806 105.076 185.073 105.082 185.36 105.082C186.675 105.082 187.756 104.874 188.602 104.457C190.086 103.728 190.829 102.426 190.829 100.551C190.829 99.1576 190.334 98.0833 189.344 97.3281C188.355 96.5729 187.202 96.1953 185.887 96.1953C183.543 96.1953 181.922 96.9766 181.024 98.5391C180.529 99.3984 180.249 100.622 180.184 102.211H176.708C176.708 100.128 177.124 98.3568 177.958 96.8984C179.39 94.2943 181.909 92.9922 185.516 92.9922C188.368 92.9922 190.575 93.6302 192.137 94.9062C193.7 96.1693 194.481 98.0052 194.481 100.414C194.481 102.133 194.019 103.526 193.094 104.594C192.521 105.258 191.779 105.779 190.868 106.156C192.339 106.56 193.485 107.341 194.305 108.5C195.138 109.646 195.555 111.052 195.555 112.719C195.555 115.388 194.676 117.562 192.918 119.242C191.161 120.922 188.667 121.762 185.438 121.762Z" fill="#8D0000"/>
<path d="M221.542 88.6112C221.347 89.4162 221.841 90.2273 222.646 90.4229L235.764 93.6094C236.569 93.805 237.381 93.3109 237.576 92.5059C237.772 91.7008 237.278 90.8897 236.473 90.6942L224.812 87.8617L227.644 76.2008C227.84 75.3958 227.346 74.5847 226.541 74.3891C225.736 74.1936 224.924 74.6877 224.729 75.4927L221.542 88.6112ZM320.119 280.05C320.442 280.813 321.322 281.17 322.085 280.847L334.516 275.583C335.279 275.26 335.636 274.38 335.313 273.617C334.99 272.854 334.109 272.497 333.347 272.82L322.296 277.499L317.617 266.449C317.294 265.686 316.414 265.33 315.651 265.653C314.888 265.976 314.532 266.856 314.855 267.619L320.119 280.05ZM228.025 87.7625C228.747 87.3572 229.004 86.4429 228.599 85.7204C228.194 84.9979 227.279 84.7408 226.557 85.1461L228.025 87.7625ZM235.33 80.6641C234.577 81.0102 234.247 81.901 234.594 82.6536C234.94 83.4063 235.83 83.7358 236.583 83.3896L235.33 80.6641ZM245.471 79.7933C246.253 79.5209 246.667 78.6659 246.394 77.8835C246.122 77.1011 245.267 76.6877 244.485 76.96L245.471 79.7933ZM254 74.2341C253.192 74.4146 252.682 75.2163 252.863 76.0249C253.043 76.8334 253.845 77.3425 254.654 77.1621L254 74.2341ZM264.044 75.7134C264.87 75.6449 265.484 74.9202 265.415 74.0946C265.347 73.269 264.622 72.6552 263.796 72.7236L264.044 75.7134ZM273.752 72.674C272.926 72.6111 272.206 73.2297 272.143 74.0558C272.08 74.8818 272.699 75.6024 273.525 75.6653L273.752 72.674ZM282.877 77.1998C283.679 77.4058 284.497 76.9222 284.703 76.1198C284.909 75.3174 284.425 74.5 283.623 74.294L282.877 77.1998ZM293.035 77.638C292.283 77.2917 291.392 77.6211 291.046 78.3737C290.7 79.1263 291.029 80.0171 291.782 80.3634L293.035 77.638ZM300.003 85.0532C300.685 85.5232 301.619 85.3512 302.089 84.6691C302.559 83.9869 302.387 83.0529 301.705 82.5828L300.003 85.0532ZM309.435 88.8657C308.833 88.2959 307.884 88.3215 307.314 88.9229C306.744 89.5242 306.77 90.4736 307.371 91.0434L309.435 88.8657ZM313.836 98.08C314.355 98.7256 315.3 98.828 315.945 98.3088C316.591 97.7896 316.693 96.8454 316.174 96.1999L313.836 98.08ZM321.904 104.253C321.463 103.553 320.536 103.343 319.836 103.784C319.135 104.226 318.925 105.153 319.367 105.853L321.904 104.253ZM324.062 114.208C324.433 114.949 325.334 115.249 326.075 114.878C326.815 114.507 327.115 113.606 326.745 112.865L324.062 114.208ZM330.775 121.877C330.468 121.107 329.596 120.732 328.826 121.038C328.056 121.345 327.681 122.217 327.988 122.987L330.775 121.877ZM331.211 132.07C331.459 132.861 332.301 133.3 333.091 133.051C333.882 132.803 334.321 131.961 334.072 131.171L331.211 132.07ZM336.708 140.66C336.513 139.855 335.701 139.361 334.896 139.557C334.091 139.753 333.597 140.564 333.793 141.369L336.708 140.66ZM335.791 150.818C335.938 151.634 336.719 152.175 337.534 152.027C338.349 151.88 338.89 151.099 338.743 150.284L335.791 150.818ZM340.226 159.996C340.123 159.174 339.373 158.592 338.551 158.695C337.729 158.798 337.146 159.548 337.249 160.37L340.226 159.996ZM338.209 169.987C338.27 170.813 338.99 171.433 339.816 171.371C340.642 171.309 341.262 170.59 341.2 169.763L338.209 169.987ZM341.7 179.559C341.677 178.731 340.987 178.078 340.159 178.101C339.33 178.124 338.678 178.814 338.701 179.642L341.7 179.559ZM338.752 189.313C338.738 190.141 339.398 190.824 340.226 190.838C341.055 190.852 341.737 190.191 341.751 189.363L338.752 189.313ZM341.378 199.157C341.427 198.33 340.796 197.62 339.969 197.571C339.142 197.522 338.432 198.153 338.383 198.98L341.378 199.157ZM337.613 208.627C337.53 209.451 338.131 210.187 338.956 210.269C339.78 210.352 340.515 209.751 340.598 208.927L337.613 208.627ZM339.425 218.657C339.541 217.837 338.969 217.078 338.149 216.963C337.328 216.848 336.57 217.419 336.455 218.24L339.425 218.657ZM334.92 227.804C334.773 228.619 335.314 229.399 336.13 229.546C336.945 229.693 337.725 229.151 337.872 228.336L334.92 227.804ZM335.948 237.95C336.126 237.141 335.614 236.341 334.805 236.163C333.996 235.985 333.196 236.496 333.018 237.305L335.948 237.95ZM330.756 246.732C330.548 247.534 331.029 248.353 331.831 248.561C332.632 248.77 333.451 248.289 333.66 247.487L330.756 246.732ZM331.017 256.925C331.256 256.132 330.805 255.295 330.012 255.057C329.219 254.819 328.382 255.269 328.144 256.062L331.017 256.925ZM325.189 265.277C324.922 266.061 325.34 266.914 326.124 267.182C326.909 267.449 327.761 267.03 328.029 266.246L325.189 265.277ZM324.693 275.455C324.99 274.681 324.603 273.814 323.83 273.517C323.056 273.221 322.189 273.607 321.892 274.381L324.693 275.455ZM223.78 90.2463C225.207 89.3775 226.621 88.5498 228.025 87.7625L226.557 85.1461C225.122 85.9514 223.676 86.7973 222.22 87.6842L223.78 90.2463ZM236.583 83.3896C239.605 81.9996 242.568 80.8035 245.471 79.7933L244.485 76.96C241.487 78.0035 238.434 79.2361 235.33 80.6641L236.583 83.3896ZM254.654 77.1621C257.868 76.4445 260.999 75.9658 264.044 75.7134L263.796 72.7236C260.609 72.9878 257.342 73.4881 254 74.2341L254.654 77.1621ZM273.525 75.6653C276.751 75.911 279.87 76.428 282.877 77.1998L283.623 74.294C280.443 73.478 277.152 72.9328 273.752 72.674L273.525 75.6653ZM291.782 80.3634C294.639 81.6778 297.38 83.2463 300.003 85.0532L301.705 82.5828C298.945 80.6815 296.054 79.0268 293.035 77.638L291.782 80.3634ZM307.371 91.0434C309.638 93.1911 311.794 95.541 313.836 98.08L316.174 96.1999C314.052 93.5617 311.805 91.1114 309.435 88.8657L307.371 91.0434ZM319.367 105.853C321.032 108.495 322.598 111.284 324.062 114.208L326.745 112.865C325.239 109.858 323.625 106.983 321.904 104.253L319.367 105.853ZM327.988 122.987C329.152 125.912 330.227 128.942 331.211 132.07L334.072 131.171C333.068 127.975 331.968 124.874 330.775 121.877L327.988 122.987ZM333.793 141.369C334.541 144.445 335.207 147.597 335.791 150.818L338.743 150.284C338.149 147.006 337.471 143.796 336.708 140.66L333.793 141.369ZM337.249 160.37C337.645 163.523 337.965 166.73 338.209 169.987L341.2 169.763C340.953 166.458 340.628 163.2 340.226 159.996L337.249 160.37ZM338.701 179.642C338.789 182.828 338.806 186.054 338.752 189.313L341.751 189.363C341.807 186.06 341.789 182.79 341.7 179.559L338.701 179.642ZM338.383 198.98C338.194 202.171 337.938 205.388 337.613 208.627L340.598 208.927C340.927 205.647 341.187 202.389 341.378 199.157L338.383 198.98ZM336.455 218.24C336.008 221.413 335.497 224.602 334.92 227.804L337.872 228.336C338.456 225.097 338.974 221.869 339.425 218.657L336.455 218.24ZM333.018 237.305C332.328 240.441 331.574 243.585 330.756 246.732L333.66 247.487C334.487 244.303 335.249 241.123 335.948 237.95L333.018 237.305ZM328.144 256.062C327.221 259.135 326.237 262.208 325.189 265.277L328.029 266.246C329.088 263.142 330.084 260.034 331.017 256.925L328.144 256.062ZM321.892 274.381C321.313 275.89 320.719 277.397 320.11 278.902L322.89 280.029C323.507 278.506 324.108 276.981 324.693 275.455L321.892 274.381Z" fill="#8D0000"/>
<path d="M250.939 393.939C250.354 394.525 250.354 395.475 250.939 396.061L260.485 405.607C261.071 406.192 262.021 406.192 262.607 405.607C263.192 405.021 263.192 404.071 262.607 403.485L254.121 395L262.607 386.515C263.192 385.929 263.192 384.979 262.607 384.393C262.021 383.808 261.071 383.808 260.485 384.393L250.939 393.939ZM461.824 415.288C462.516 414.833 462.709 413.903 462.254 413.211L454.84 401.929C454.385 401.237 453.455 401.044 452.762 401.499C452.07 401.954 451.878 402.884 452.333 403.577L458.923 413.605L448.894 420.195C448.202 420.65 448.009 421.58 448.464 422.272C448.919 422.965 449.849 423.157 450.542 422.702L461.824 415.288ZM256.794 396.505C257.622 396.506 258.295 395.836 258.297 395.008C258.299 394.179 257.628 393.506 256.8 393.505L256.794 396.505ZM266.353 393.545C265.525 393.539 264.849 394.207 264.844 395.035C264.838 395.863 265.506 396.539 266.334 396.545L266.353 393.545ZM275.89 396.63C276.719 396.64 277.398 395.976 277.408 395.148C277.417 394.319 276.753 393.64 275.925 393.63L275.89 396.63ZM285.495 393.768C284.666 393.754 283.983 394.413 283.969 395.242C283.955 396.07 284.614 396.753 285.443 396.768L285.495 393.768ZM294.978 396.963C295.806 396.983 296.493 396.327 296.513 395.499C296.533 394.671 295.877 393.983 295.049 393.964L294.978 396.963ZM304.624 394.226C303.795 394.2 303.103 394.85 303.078 395.678C303.052 396.506 303.702 397.198 304.53 397.224L304.624 394.226ZM314.067 397.558C314.895 397.59 315.592 396.945 315.625 396.117C315.657 395.29 315.012 394.592 314.184 394.56L314.067 397.558ZM323.747 394.975C322.92 394.935 322.217 395.574 322.177 396.401C322.138 397.229 322.776 397.932 323.604 397.971L323.747 394.975ZM333.134 398.472C333.961 398.519 334.67 397.887 334.718 397.06C334.765 396.233 334.133 395.524 333.306 395.476L333.134 398.472ZM342.86 396.072C342.033 396.017 341.318 396.641 341.262 397.468C341.206 398.294 341.831 399.01 342.658 399.066L342.86 396.072ZM352.174 399.759C353 399.824 353.722 399.207 353.786 398.381C353.851 397.555 353.234 396.833 352.408 396.768L352.174 399.759ZM361.949 397.57C361.124 397.496 360.395 398.105 360.321 398.93C360.247 399.755 360.856 400.484 361.681 400.558L361.949 397.57ZM371.178 401.466C372.002 401.55 372.738 400.949 372.821 400.125C372.905 399.301 372.305 398.565 371.481 398.481L371.178 401.466ZM381.001 399.505C380.178 399.411 379.435 400.003 379.341 400.826C379.248 401.649 379.839 402.392 380.662 402.486L381.001 399.505ZM390.136 403.619C390.958 403.722 391.708 403.139 391.812 402.317C391.915 401.495 391.332 400.745 390.51 400.642L390.136 403.619ZM400.001 401.892C399.18 401.779 398.424 402.353 398.31 403.173C398.197 403.994 398.771 404.751 399.592 404.864L400.001 401.892ZM409.04 406.222C409.859 406.345 410.623 405.78 410.745 404.961C410.868 404.142 410.303 403.378 409.484 403.255L409.04 406.222ZM418.939 404.726C418.121 404.594 417.351 405.15 417.219 405.968C417.087 406.786 417.643 407.556 418.461 407.687L418.939 404.726ZM427.881 409.259C428.697 409.4 429.473 408.852 429.614 408.036C429.754 407.22 429.207 406.444 428.39 406.303L427.881 409.259ZM437.806 407.977C436.992 407.828 436.21 408.368 436.061 409.182C435.912 409.997 436.451 410.779 437.266 410.928L437.806 407.977ZM446.652 412.693C447.466 412.851 448.252 412.318 448.409 411.505C448.566 410.692 448.034 409.905 447.221 409.748L446.652 412.693ZM456.604 411.604C455.792 411.44 455.001 411.965 454.836 412.776C454.672 413.588 455.197 414.38 456.009 414.544L456.604 411.604ZM252 396.5C253.608 396.5 255.206 396.502 256.794 396.505L256.8 393.505C255.21 393.502 253.61 393.5 252 393.5L252 396.5ZM266.334 396.545C269.559 396.566 272.743 396.594 275.89 396.63L275.925 393.63C272.773 393.594 269.583 393.566 266.353 393.545L266.334 396.545ZM285.443 396.768C288.657 396.823 291.835 396.888 294.978 396.963L295.049 393.964C291.899 393.889 288.715 393.824 285.495 393.768L285.443 396.768ZM304.53 397.224C307.741 397.324 310.919 397.435 314.067 397.558L314.184 394.56C311.028 394.437 307.842 394.326 304.624 394.226L304.53 397.224ZM323.604 397.971C326.806 398.124 329.981 398.291 333.134 398.472L333.306 395.476C330.143 395.295 326.959 395.128 323.747 394.975L323.604 397.971ZM342.658 399.066C345.847 399.281 349.017 399.512 352.174 399.759L352.408 396.768C349.241 396.52 346.06 396.288 342.86 396.072L342.658 399.066ZM361.681 400.558C364.855 400.843 368.018 401.145 371.178 401.466L371.481 398.481C368.31 398.159 365.134 397.856 361.949 397.57L361.681 400.558ZM380.662 402.486C383.818 402.844 386.975 403.221 390.136 403.619L390.51 400.642C387.337 400.243 384.169 399.864 381.001 399.505L380.662 402.486ZM399.592 404.864C402.729 405.296 405.877 405.749 409.04 406.222L409.484 403.255C406.31 402.78 403.15 402.326 400.001 401.892L399.592 404.864ZM418.461 407.687C421.581 408.191 424.719 408.714 427.881 409.259L428.39 406.303C425.218 405.756 422.069 405.231 418.939 404.726L418.461 407.687ZM437.266 410.928C440.368 411.496 443.495 412.084 446.652 412.693L447.221 409.748C444.055 409.137 440.918 408.547 437.806 407.977L437.266 410.928ZM456.009 414.544C457.563 414.859 459.126 415.179 460.696 415.504L461.304 412.566C459.729 412.24 458.163 411.92 456.604 411.604L456.009 414.544Z" fill="#8D0000"/>
</svg>
