<svg width="605" height="810" viewBox="0 0 605 810" fill="none" xmlns="http://www.w3.org/2000/svg">
<path d="M53.1295 405.195V402.5C55.6685 402.253 57.4394 401.842 58.442 401.27C59.4446 400.684 60.1933 399.31 60.6881 397.148H63.4615V425H59.7115V405.195H53.1295Z" fill="#8D0000"/>
<path d="M521.077 374.346C522.561 374.346 524 374.697 525.393 375.4C526.786 376.09 527.848 376.989 528.577 378.096C529.28 379.15 529.749 380.381 529.983 381.787C530.191 382.751 530.295 384.287 530.295 386.396H514.963C515.029 388.519 515.53 390.225 516.467 391.514C517.405 392.79 518.857 393.428 520.823 393.428C522.659 393.428 524.124 392.822 525.217 391.611C525.842 390.908 526.285 390.094 526.545 389.17H530.003C529.911 389.938 529.605 390.798 529.085 391.748C528.577 392.686 528.004 393.454 527.366 394.053C526.298 395.094 524.976 395.798 523.401 396.162C522.555 396.37 521.598 396.475 520.53 396.475C517.926 396.475 515.719 395.531 513.909 393.643C512.099 391.742 511.194 389.085 511.194 385.674C511.194 382.314 512.105 379.587 513.928 377.49C515.751 375.394 518.134 374.346 521.077 374.346ZM526.682 383.604C526.539 382.08 526.207 380.863 525.686 379.951C524.723 378.258 523.115 377.412 520.862 377.412C519.247 377.412 517.893 377.998 516.799 379.17C515.706 380.329 515.126 381.807 515.061 383.604H526.682Z" fill="#8D0000"/>
<path d="M425.468 350.837C425.468 353.076 425.943 354.951 426.894 356.462C427.844 357.972 429.368 358.728 431.464 358.728C433.092 358.728 434.427 358.031 435.468 356.638C436.523 355.231 437.05 353.22 437.05 350.603C437.05 347.959 436.51 346.006 435.429 344.743C434.348 343.467 433.014 342.829 431.425 342.829C429.654 342.829 428.216 343.506 427.109 344.86C426.015 346.215 425.468 348.207 425.468 350.837ZM430.761 339.763C432.363 339.763 433.704 340.101 434.785 340.778C435.41 341.169 436.119 341.853 436.913 342.829V332.263H440.292V361.052H437.128V358.142C436.308 359.431 435.338 360.362 434.218 360.935C433.098 361.507 431.816 361.794 430.371 361.794C428.04 361.794 426.022 360.817 424.316 358.864C422.61 356.898 421.757 354.287 421.757 351.032C421.757 347.985 422.532 345.349 424.081 343.122C425.644 340.882 427.871 339.763 430.761 339.763Z" fill="#8D0000"/>
<path d="M340.573 326.523C342.93 326.523 344.844 327.096 346.315 328.242C347.799 329.388 348.691 331.361 348.991 334.16H345.573C345.365 332.871 344.889 331.803 344.147 330.957C343.405 330.098 342.213 329.668 340.573 329.668C338.333 329.668 336.732 330.762 335.768 332.949C335.143 334.368 334.831 336.12 334.831 338.203C334.831 340.299 335.273 342.064 336.159 343.496C337.044 344.928 338.437 345.645 340.338 345.645C341.797 345.645 342.949 345.202 343.795 344.316C344.655 343.418 345.247 342.194 345.573 340.645H348.991C348.6 343.418 347.624 345.449 346.061 346.738C344.499 348.014 342.5 348.652 340.065 348.652C337.331 348.652 335.15 347.656 333.522 345.664C331.894 343.659 331.081 341.159 331.081 338.164C331.081 334.492 331.973 331.634 333.756 329.59C335.54 327.546 337.812 326.523 340.573 326.523Z" fill="#8D0000"/>
<path d="M247.649 335.513H251.067V345.923C251.835 344.92 252.753 344.159 253.821 343.638C254.889 343.104 256.047 342.837 257.297 342.837C259.902 342.837 262.011 343.735 263.626 345.532C265.253 347.316 266.067 349.953 266.067 353.442C266.067 356.75 265.266 359.497 263.665 361.685C262.063 363.872 259.843 364.966 257.004 364.966C255.416 364.966 254.075 364.582 252.981 363.813C252.33 363.358 251.633 362.629 250.891 361.626V364.302H247.649V335.513ZM256.79 361.86C258.691 361.86 260.11 361.105 261.047 359.595C261.998 358.084 262.473 356.092 262.473 353.618C262.473 351.418 261.998 349.595 261.047 348.149C260.11 346.704 258.723 345.981 256.887 345.981C255.286 345.981 253.879 346.574 252.669 347.759C251.471 348.944 250.872 350.897 250.872 353.618C250.872 355.584 251.119 357.179 251.614 358.403C252.538 360.708 254.264 361.86 256.79 361.86Z" fill="#8D0000"/>
<path d="M150.114 547.173C150.114 548.188 150.485 548.989 151.227 549.575C151.969 550.161 152.848 550.454 153.864 550.454C155.101 550.454 156.299 550.168 157.458 549.595C159.411 548.644 160.387 547.088 160.387 544.927V542.095C159.958 542.368 159.404 542.596 158.727 542.778C158.05 542.961 157.386 543.091 156.735 543.169L154.606 543.442C153.33 543.612 152.373 543.879 151.735 544.243C150.654 544.855 150.114 545.832 150.114 547.173ZM158.629 540.063C159.437 539.959 159.977 539.621 160.251 539.048C160.407 538.735 160.485 538.286 160.485 537.7C160.485 536.502 160.055 535.636 159.196 535.103C158.35 534.556 157.132 534.282 155.544 534.282C153.708 534.282 152.406 534.777 151.637 535.767C151.208 536.313 150.928 537.127 150.797 538.208H147.516C147.581 535.63 148.415 533.84 150.016 532.837C151.631 531.821 153.499 531.313 155.622 531.313C158.083 531.313 160.081 531.782 161.618 532.72C163.141 533.657 163.903 535.116 163.903 537.095V549.146C163.903 549.51 163.975 549.803 164.118 550.024C164.274 550.246 164.593 550.356 165.075 550.356C165.231 550.356 165.407 550.35 165.602 550.337C165.797 550.311 166.006 550.278 166.227 550.239V552.837C165.68 552.993 165.264 553.091 164.977 553.13C164.691 553.169 164.3 553.188 163.805 553.188C162.594 553.188 161.715 552.759 161.169 551.899C160.882 551.444 160.68 550.799 160.563 549.966C159.847 550.903 158.818 551.717 157.477 552.407C156.136 553.097 154.658 553.442 153.044 553.442C151.103 553.442 149.515 552.856 148.278 551.685C147.054 550.5 146.442 549.022 146.442 547.251C146.442 545.311 147.047 543.807 148.258 542.739C149.469 541.672 151.058 541.014 153.024 540.767L158.629 540.063Z" fill="#8D0000"/>
<path d="M360.023 738.035C360.075 736.577 360.329 735.509 360.785 734.832C361.605 733.634 363.187 733.035 365.531 733.035C365.752 733.035 365.98 733.042 366.214 733.055C366.449 733.068 366.716 733.087 367.015 733.113V736.316C366.65 736.29 366.384 736.277 366.214 736.277C366.058 736.264 365.908 736.258 365.765 736.258C364.697 736.258 364.059 736.538 363.851 737.098C363.643 737.645 363.538 739.051 363.538 741.316H367.015V744.09H363.499V762.137H360.023V744.09H357.113V741.316H360.023V738.035Z" fill="#8D0000"/>
<path d="M223.835 66.2627C223.965 63.8538 224.46 61.7575 225.319 59.9736C226.191 58.1898 227.884 56.5687 230.397 55.1104L234.147 52.9424C235.827 51.9658 237.005 51.1325 237.682 50.4424C238.75 49.3617 239.284 48.1247 239.284 46.7314C239.284 45.1038 238.795 43.8148 237.819 42.8643C236.842 41.9007 235.54 41.4189 233.913 41.4189C231.504 41.4189 229.837 42.3304 228.913 44.1533C228.418 45.1299 228.144 46.484 228.092 48.2158H224.518C224.557 45.7809 225.006 43.7952 225.866 42.2588C227.389 39.5505 230.078 38.1963 233.932 38.1963C237.135 38.1963 239.473 39.0622 240.944 40.7939C242.428 42.5257 243.17 44.4528 243.17 46.5752C243.17 48.8148 242.383 50.7288 240.807 52.3174C239.896 53.2419 238.262 54.3617 235.905 55.6768L233.229 57.1611C231.953 57.8643 230.95 58.5348 230.221 59.1729C228.919 60.3057 228.099 61.5622 227.76 62.9424H243.034V66.2627H223.835Z" fill="#8D0000"/>
<path d="M537.489 194.606C537.723 196.612 538.654 197.998 540.282 198.767C541.115 199.157 542.079 199.353 543.172 199.353C545.256 199.353 546.799 198.688 547.801 197.36C548.804 196.032 549.305 194.561 549.305 192.946C549.305 190.993 548.706 189.483 547.508 188.415C546.323 187.347 544.898 186.813 543.231 186.813C542.02 186.813 540.978 187.048 540.106 187.517C539.247 187.985 538.511 188.636 537.899 189.47L534.852 189.294L536.981 174.235H551.512V177.634H539.618L538.426 185.407C539.077 184.912 539.696 184.541 540.282 184.294C541.323 183.864 542.528 183.649 543.895 183.649C546.46 183.649 548.635 184.476 550.419 186.13C552.202 187.784 553.094 189.88 553.094 192.419C553.094 195.062 552.274 197.393 550.633 199.411C549.006 201.429 546.402 202.438 542.821 202.438C540.542 202.438 538.524 201.8 536.766 200.524C535.021 199.235 534.045 197.263 533.837 194.606H537.489Z" fill="#8D0000"/>
<path d="M468.821 68.2812V55.6055L459.856 68.2812H468.821ZM468.879 78.1836V71.3477H456.614V67.9102L469.426 50.1367H472.395V68.2812H476.516V71.3477H472.395V78.1836H468.879Z" fill="#8D0000"/>
<path d="M358.694 37.7617C355.387 37.7617 352.984 36.8568 351.487 35.0469C350.003 33.224 349.26 31.0104 349.26 28.4062H352.932C353.088 30.2161 353.427 31.5312 353.948 32.3516C354.859 33.8229 356.506 34.5586 358.889 34.5586C360.738 34.5586 362.223 34.0638 363.342 33.0742C364.462 32.0846 365.022 30.8086 365.022 29.2461C365.022 27.319 364.43 25.9714 363.245 25.2031C362.073 24.4349 360.439 24.0508 358.342 24.0508C358.108 24.0508 357.867 24.0573 357.62 24.0703C357.385 24.0703 357.144 24.0768 356.897 24.0898V20.9844C357.262 21.0234 357.568 21.0495 357.815 21.0625C358.062 21.0755 358.329 21.082 358.616 21.082C359.931 21.082 361.012 20.8737 361.858 20.457C363.342 19.7279 364.085 18.4258 364.085 16.5508C364.085 15.1576 363.59 14.0833 362.6 13.3281C361.611 12.5729 360.458 12.1953 359.143 12.1953C356.799 12.1953 355.178 12.9766 354.28 14.5391C353.785 15.3984 353.505 16.6224 353.44 18.2109H349.963C349.963 16.1276 350.38 14.3568 351.213 12.8984C352.646 10.2943 355.165 8.99219 358.772 8.99219C361.624 8.99219 363.831 9.63021 365.393 10.9062C366.956 12.1693 367.737 14.0052 367.737 16.4141C367.737 18.1328 367.275 19.526 366.35 20.5938C365.777 21.2578 365.035 21.7786 364.124 22.1562C365.595 22.5599 366.741 23.3411 367.561 24.5C368.394 25.6458 368.811 27.0521 368.811 28.7188C368.811 31.388 367.932 33.5625 366.174 35.2422C364.417 36.9219 361.923 37.7617 358.694 37.7617Z" fill="#8D0000"/>
<path d="M360.023 738.035C360.075 736.577 360.329 735.509 360.785 734.832C361.605 733.634 363.187 733.035 365.531 733.035C365.752 733.035 365.98 733.042 366.214 733.055C366.449 733.068 366.716 733.087 367.015 733.113V736.316C366.65 736.29 366.384 736.277 366.214 736.277C366.058 736.264 365.908 736.258 365.765 736.258C364.697 736.258 364.059 736.538 363.851 737.098C363.643 737.645 363.538 739.051 363.538 741.316H367.015V744.09H363.499V762.137H360.023V744.09H357.113V741.316H360.023V738.035Z" fill="#8D0000"/>
<path d="M480.399 746.8C479.736 746.303 478.796 746.437 478.299 747.1C477.802 747.763 477.936 748.703 478.599 749.2L480.399 746.8ZM217.498 747.959C217.476 747.131 216.786 746.478 215.958 746.501L202.463 746.87C201.635 746.892 200.982 747.582 201.005 748.41C201.027 749.238 201.717 749.891 202.545 749.869L214.541 749.54L214.869 761.536C214.892 762.364 215.581 763.017 216.409 762.994C217.237 762.972 217.89 762.282 217.868 761.454L217.498 747.959ZM211.326 751.126C210.819 751.78 210.938 752.723 211.592 753.23C212.247 753.738 213.189 753.619 213.697 752.964L211.326 751.126ZM208.946 761.203C209.229 760.425 208.828 759.564 208.049 759.281C207.271 758.998 206.41 759.399 206.127 760.178L208.946 761.203ZM205.204 770.817C205.375 771.627 206.171 772.146 206.981 771.975C207.792 771.804 208.31 771.008 208.139 770.198L205.204 770.817ZM212.46 778.304C211.912 777.684 210.964 777.625 210.343 778.173C209.722 778.722 209.663 779.669 210.212 780.29L212.46 778.304ZM218.348 787.073C219.044 787.521 219.972 787.321 220.421 786.624C220.87 785.928 220.669 785 219.973 784.551L218.348 787.073ZM228.676 789.219C227.921 788.877 227.032 789.212 226.69 789.966C226.348 790.721 226.683 791.61 227.437 791.952L228.676 789.219ZM236.97 795.719C237.753 795.99 238.607 795.575 238.878 794.792C239.149 794.009 238.735 793.155 237.952 792.884L236.97 795.719ZM247.445 795.818C246.647 795.598 245.821 796.066 245.6 796.865C245.379 797.663 245.848 798.489 246.646 798.71L247.445 795.818ZM256.485 801.164C257.294 801.346 258.096 800.838 258.278 800.03C258.46 799.222 257.952 798.419 257.144 798.237L256.485 801.164ZM267.014 800.253C266.2 800.102 265.417 800.641 265.267 801.455C265.116 802.27 265.654 803.052 266.469 803.203L267.014 800.253ZM276.568 804.899C277.387 805.023 278.152 804.46 278.277 803.641C278.401 802.822 277.838 802.057 277.019 801.933L276.568 804.899ZM286.93 803.298C286.108 803.196 285.358 803.779 285.256 804.601C285.154 805.423 285.738 806.173 286.56 806.275L286.93 803.298ZM296.646 807.403C297.47 807.485 298.205 806.884 298.288 806.06C298.37 805.235 297.769 804.5 296.944 804.418L296.646 807.403ZM307.042 805.314C306.217 805.25 305.495 805.867 305.43 806.693C305.366 807.519 305.983 808.241 306.809 808.305L307.042 805.314ZM316.879 808.988C317.706 809.036 318.415 808.404 318.463 807.577C318.511 806.75 317.88 806.041 317.052 805.993L316.879 808.988ZM327.141 806.481C326.313 806.449 325.616 807.094 325.583 807.922C325.551 808.75 326.196 809.447 327.024 809.479L327.141 806.481ZM337.162 809.784C337.99 809.801 338.676 809.144 338.693 808.316C338.711 807.487 338.054 806.802 337.225 806.784L337.162 809.784ZM347.31 806.908C346.482 806.905 345.808 807.575 345.805 808.403C345.802 809.231 346.471 809.905 347.3 809.908L347.31 806.908ZM357.44 809.857C358.268 809.846 358.93 809.165 358.919 808.337C358.908 807.508 358.227 806.846 357.399 806.857L357.44 809.857ZM367.488 806.631C366.66 806.657 366.009 807.349 366.035 808.177C366.061 809.005 366.753 809.656 367.581 809.63L367.488 806.631ZM377.722 809.224C378.55 809.183 379.187 808.48 379.147 807.652C379.106 806.825 378.403 806.187 377.575 806.228L377.722 809.224ZM387.613 805.643C386.787 805.699 386.162 806.415 386.218 807.241C386.273 808.068 386.989 808.692 387.815 808.637L387.613 805.643ZM397.972 807.85C398.797 807.778 399.408 807.051 399.335 806.226C399.263 805.4 398.536 804.79 397.711 804.862L397.972 807.85ZM407.728 803.88C406.904 803.97 406.309 804.71 406.399 805.533C406.489 806.357 407.229 806.952 408.053 806.862L407.728 803.88ZM418.106 805.649C418.927 805.54 419.504 804.786 419.395 803.965C419.286 803.143 418.532 802.566 417.71 802.675L418.106 805.649ZM427.735 801.209C426.917 801.34 426.36 802.109 426.492 802.927C426.623 803.745 427.392 804.302 428.21 804.171L427.735 801.209ZM438.203 802.41C439.017 802.253 439.549 801.467 439.392 800.653C439.235 799.84 438.448 799.308 437.635 799.464L438.203 802.41ZM447.377 797.399C446.57 797.587 446.068 798.393 446.256 799.2C446.443 800.007 447.25 800.509 448.057 800.321L447.377 797.399ZM457.985 797.764C458.782 797.537 459.243 796.707 459.016 795.91C458.789 795.113 457.959 794.652 457.162 794.879L457.985 797.764ZM466.739 791.815C465.96 792.096 465.555 792.955 465.835 793.735C466.116 794.514 466.975 794.919 467.755 794.638L466.739 791.815ZM477.244 790.714C477.991 790.356 478.307 789.46 477.949 788.713C477.591 787.966 476.695 787.65 475.948 788.008L477.244 790.714ZM484.411 783.108C483.738 783.59 483.584 784.528 484.067 785.201C484.55 785.874 485.487 786.028 486.16 785.545L484.411 783.108ZM493.669 778.013C494.116 777.315 493.912 776.388 493.214 775.942C492.516 775.495 491.588 775.699 491.142 776.397L493.669 778.013ZM493.136 767.809C493.256 768.629 494.017 769.197 494.836 769.078C495.656 768.959 496.224 768.198 496.105 767.378L493.136 767.809ZM491.81 757.759C491.318 757.092 490.379 756.95 489.712 757.441C489.045 757.932 488.903 758.871 489.394 759.538L491.81 757.759ZM482.712 752.505C483.338 753.048 484.286 752.98 484.828 752.354C485.371 751.728 485.303 750.78 484.677 750.238L482.712 752.505ZM214.91 746.969C213.58 748.373 212.386 749.759 211.326 751.126L213.697 752.964C214.691 751.683 215.819 750.372 217.088 749.031L214.91 746.969ZM206.127 760.178C204.781 763.88 204.491 767.436 205.204 770.817L208.139 770.198C207.554 767.424 207.77 764.437 208.946 761.203L206.127 760.178ZM210.212 780.29C212.367 782.73 215.112 784.987 218.348 787.073L219.973 784.551C216.908 782.576 214.391 780.491 212.46 778.304L210.212 780.29ZM227.437 791.952C230.382 793.286 233.57 794.541 236.97 795.719L237.952 792.884C234.625 791.732 231.525 790.51 228.676 789.219L227.437 791.952ZM246.646 798.71C249.796 799.58 253.081 800.398 256.485 801.164L257.144 798.237C253.782 797.481 250.544 796.675 247.445 795.818L246.646 798.71ZM266.469 803.203C269.752 803.81 273.123 804.375 276.568 804.899L277.019 801.933C273.603 801.414 270.264 800.854 267.014 800.253L266.469 803.203ZM286.56 806.275C289.87 806.686 293.235 807.062 296.646 807.403L296.944 804.418C293.556 804.079 290.215 803.706 286.93 803.298L286.56 806.275ZM306.809 808.305C310.135 808.564 313.494 808.792 316.879 808.988L317.052 805.993C313.687 805.798 310.348 805.572 307.042 805.314L306.809 808.305ZM327.024 809.479C330.388 809.611 333.77 809.712 337.162 809.784L337.225 806.784C333.851 806.713 330.487 806.612 327.141 806.481L327.024 809.479ZM347.3 809.908C350.68 809.921 354.062 809.903 357.44 809.857L357.399 806.857C354.038 806.903 350.673 806.921 347.31 806.908L347.3 809.908ZM367.581 809.63C370.976 809.524 374.359 809.389 377.722 809.224L377.575 806.228C374.231 806.392 370.865 806.526 367.488 806.631L367.581 809.63ZM387.815 808.637C391.233 808.406 394.621 808.144 397.972 807.85L397.711 804.862C394.38 805.153 391.012 805.414 387.613 805.643L387.815 808.637ZM408.053 806.862C411.457 806.491 414.811 806.087 418.106 805.649L417.71 802.675C414.44 803.11 411.11 803.511 407.728 803.88L408.053 806.862ZM428.21 804.171C431.626 803.623 434.961 803.036 438.203 802.41L437.635 799.464C434.425 800.084 431.122 800.665 427.735 801.209L428.21 804.171ZM448.057 800.321C451.507 799.519 454.822 798.666 457.985 797.764L457.162 794.879C454.051 795.767 450.784 796.607 447.377 797.399L448.057 800.321ZM467.755 794.638C471.178 793.406 474.353 792.099 477.244 790.714L475.948 788.008C473.163 789.342 470.084 790.612 466.739 791.815L467.755 794.638ZM486.16 785.545C489.366 783.245 491.926 780.74 493.669 778.013L491.142 776.397C489.661 778.713 487.409 780.957 484.411 783.108L486.16 785.545ZM496.105 767.378C495.649 764.235 494.215 761.026 491.81 757.759L489.394 759.538C491.586 762.515 492.768 765.271 493.136 767.809L496.105 767.378ZM484.677 750.238C483.368 749.104 481.943 747.958 480.399 746.8L478.599 749.2C480.092 750.32 481.462 751.422 482.712 752.505L484.677 750.238Z" fill="#8D0000"/>
</svg>
